<svg xmlns="http://www.w3.org/2000/svg" version="1.1" id="Layer_1" x="0px" y="0px" viewBox="0 0 216 216" style="enable-background:new 0 0 216 216;" xmlns:xlink="http://www.w3.org/1999/xlink" xml:space="preserve">
<style type="text/css">
	.st0{fill:#396238;}
	.st1{fill:#446D3D;}
	.st2{fill:#602628;}
	.st3{fill:#2E6EA7;}
	.st4{fill:#272425;}
	.st5{fill:#272525;}
	.st6{fill:#FFFFFF;}
</style>
<g>
	<g id="DQI15g_2_">
		<g>
			<path class="st3" d="M91.85,108.28c0-3.04,0-6.07,0-9.11c0-0.83,0.39-1.23,1.21-1.23c1.04-0.01,2.07,0.02,3.11-0.01     c0.79-0.02,1.33,0.32,1.75,0.98c1.38,2.22,2.78,4.42,4.18,6.63c0.33,0.53,0.44,0.53,0.78-0.01c1.38-2.19,2.77-4.37,4.13-6.57     c0.45-0.72,1.02-1.07,1.88-1.04c0.98,0.04,1.96,0.01,2.94,0.01c0.91,0,1.29,0.39,1.28,1.3c0,6.02,0,12.04,0,18.06     c0,0.71-0.12,0.83-0.83,0.83c-1.44,0-2.89,0-4.33,0c-0.62,0-0.71-0.09-0.71-0.71c0-3.16,0-6.32,0-9.48c0-0.07,0.01-0.14,0-0.2     c-0.02-0.12,0.07-0.31-0.1-0.36c-0.17-0.05-0.22,0.13-0.29,0.23c-0.77,1.16-1.55,2.3-2.29,3.48c-0.36,0.57-0.79,0.86-1.47,0.79     c-0.46-0.05-0.93-0.04-1.39,0c-0.58,0.05-0.94-0.22-1.24-0.68c-0.74-1.15-1.49-2.28-2.24-3.41c-0.03-0.05-0.05-0.1-0.09-0.14     c-0.11-0.11-0.17-0.34-0.36-0.26c-0.17,0.06-0.09,0.27-0.09,0.41c0,3.2,0,6.4,0,9.6c0,0.63-0.1,0.74-0.73,0.74     c-1.47,0-2.94,0-4.41,0c-0.6,0-0.68-0.08-0.68-0.68C91.84,114.38,91.85,111.33,91.85,108.28z"></path>
			<path class="st3" d="M50.5,107.81c0,3.01,0,6.02,0,9.03c0,0.87-0.39,1.27-1.27,1.28c-1.2,0.01-2.4-0.01-3.6,0.01     c-0.71,0.01-1.2-0.28-1.59-0.87c-1.87-2.91-3.75-5.81-5.63-8.71c-0.04-0.06-0.07-0.11-0.11-0.17c-0.09-0.13-0.16-0.32-0.36-0.28     c-0.24,0.05-0.14,0.27-0.14,0.41c-0.01,2.91,0,5.83,0,8.74c0,0.71-0.16,0.87-0.86,0.87c-1.32,0-2.64,0-3.96,0     c-0.71,0-0.9-0.18-0.9-0.89c0-6.02,0-12.04,0-18.06c0-0.82,0.4-1.23,1.22-1.24c1.19,0,2.37,0.03,3.55-0.01     c0.7-0.02,1.15,0.26,1.51,0.83c1.54,2.41,3.1,4.8,4.65,7.2c0.47,0.73,0.99,1.43,1.39,2.21c0.05,0.1,0.12,0.19,0.25,0.16     c0.14-0.03,0.16-0.13,0.16-0.24c0-0.11,0-0.22,0-0.33c0-3,0-5.99,0-8.99c0-0.67,0.15-0.83,0.8-0.83c1.36,0,2.72,0,4.09,0     c0.62,0,0.78,0.15,0.78,0.77C50.5,101.74,50.5,104.77,50.5,107.81z"></path>
			<path class="st3" d="M140.71,97.64c1.47-0.02,3.35,0.1,5.15,0.81c2.78,1.09,4.34,3.17,4.75,6.08c0.32,2.26,0.3,4.54,0.02,6.8     c-0.43,3.5-2.64,5.86-6.1,6.65c-1.31,0.3-2.64,0.38-3.97,0.36c-2.08-0.03-4.16-0.13-6.23-0.44c-0.84-0.13-1.06-0.35-1.07-1.18     c0-5.81,0-11.63,0-17.44c0-0.81,0.22-1.04,1.04-1.17C136.28,97.8,138.28,97.71,140.71,97.64z M139.35,108c0,1.76,0,3.51,0,5.27     c0,0.19-0.03,0.38,0.27,0.37c0.68-0.02,1.36,0.03,2.04-0.02c1.7-0.11,2.57-0.87,2.84-2.55c0.28-1.78,0.14-3.58,0.1-5.38     c-0.01-0.3-0.06-0.6-0.12-0.89c-0.3-1.5-1.07-2.19-2.6-2.38c-0.71-0.09-1.41-0.03-2.12-0.05c-0.33-0.01-0.44,0.09-0.43,0.43     C139.36,104.55,139.35,106.27,139.35,108z"></path>
			<path class="st3" d="M193.91,118.12c-0.8,0-1.61,0-2.41,0c-0.57,0-0.69-0.1-0.81-0.65c-0.25-1.1-0.5-2.2-0.73-3.3     c-0.06-0.28-0.17-0.36-0.46-0.36c-1.53,0.02-3.05,0.02-4.58,0c-0.29,0-0.4,0.08-0.45,0.36c-0.23,1.1-0.48,2.2-0.73,3.3     c-0.12,0.52-0.24,0.64-0.77,0.64c-1.63,0.01-3.27,0-4.9,0c-0.54,0-0.68-0.18-0.55-0.71c0.94-3.92,1.88-7.84,2.83-11.77     c0.37-1.53,0.75-3.06,1.1-4.6c0.39-1.7,1.43-2.74,3.14-3.1c1.81-0.38,3.63-0.38,5.43,0.03c1.6,0.37,2.59,1.4,2.97,3.02     c1.16,4.86,2.34,9.72,3.51,14.58c0.15,0.63,0.31,1.27,0.45,1.9c0.11,0.47-0.01,0.63-0.5,0.64     C195.6,118.12,194.76,118.12,193.91,118.12C193.91,118.12,193.91,118.12,193.91,118.12z M187.21,109.47c0.5,0,1.01-0.01,1.51,0     c0.24,0.01,0.28-0.09,0.23-0.29c-0.47-2.21-0.94-4.41-1.41-6.62c-0.04-0.18-0.07-0.38-0.34-0.37c-0.28,0.01-0.28,0.23-0.32,0.4     c-0.47,2.19-0.93,4.39-1.4,6.58c-0.05,0.25,0.03,0.31,0.26,0.3C186.23,109.46,186.72,109.47,187.21,109.47z"></path>
			<path class="st3" d="M61.41,118.12c-2.23,0-4.47,0-6.7,0c-0.22,0-0.44-0.01-0.65-0.06c-0.35-0.08-0.57-0.29-0.57-0.69     c0.01-0.95,0-1.91,0-2.86c0-0.54,0.29-0.96,0.58-1.37c1.23-1.74,2.48-3.48,3.72-5.22c1.07-1.51,2.15-3.01,3.22-4.52     c0.08-0.11,0.17-0.22,0.22-0.34c0.08-0.2,0.03-0.35-0.22-0.36c-0.14-0.01-0.27-0.01-0.41-0.01c-1.99,0-3.98,0-5.97,0     c-0.65,0-0.82-0.17-0.82-0.82c0-1.08,0-2.15,0-3.23c0-0.53,0.15-0.71,0.66-0.71c4.54,0,9.07-0.01,13.61,0     c0.63,0,0.72,0.11,0.72,0.75c0,0.79-0.05,1.58,0.01,2.37c0.07,0.93-0.24,1.7-0.76,2.43c-1.29,1.8-2.58,3.61-3.87,5.41     c-0.92,1.28-1.84,2.56-2.76,3.85c-0.1,0.14-0.25,0.28-0.15,0.48c0.1,0.21,0.31,0.13,0.48,0.13c2.14,0.01,4.28,0,6.42,0.01     c0.8,0,0.94,0.13,0.94,0.91c0,0.97,0,1.93,0,2.9c0,0.81-0.14,0.96-0.94,0.96C65.9,118.12,63.66,118.12,61.41,118.12z"></path>
			<path class="st3" d="M15.02,107.96c0.03-1.62-0.04-3.24,0.04-4.86c0.14-2.8,1.65-4.57,4.41-5.15c1.45-0.31,2.92-0.33,4.39-0.29     c1.5,0.04,2.99,0.12,4.48,0.29c0.7,0.08,0.82,0.19,0.82,0.88c0,0.95,0,1.91,0,2.86c0,0.5-0.19,0.68-0.69,0.69     c-1.92,0-3.84,0-5.76,0c-0.16,0-0.33,0-0.49,0.01c-0.79,0.08-1.08,0.38-1.1,1.18c-0.01,0.6,0.01,1.2-0.01,1.8     c-0.01,0.29,0.1,0.36,0.37,0.36c2.22-0.01,4.44-0.01,6.66,0c0.78,0,0.92,0.14,0.92,0.93c0,0.83,0,1.66,0,2.49     c0,0.72-0.15,0.88-0.89,0.88c-2.18,0-4.36,0.01-6.54-0.01c-0.4,0-0.55,0.09-0.52,0.51c0.04,0.65,0,1.31,0.02,1.96     c0.02,0.73,0.27,1,0.98,1.11c0.38,0.06,0.76,0.04,1.14,0.04c1.72,0,3.43,0,5.15,0c0.61,0,0.77,0.16,0.77,0.78     c0,0.94,0,1.88,0,2.82c0,0.63-0.13,0.76-0.79,0.82c-0.88,0.08-1.76,0.18-2.64,0.22c-1.77,0.07-3.54,0.17-5.31-0.05     c-1.23-0.15-2.41-0.46-3.42-1.22c-1.31-0.98-1.83-2.37-1.93-3.93C14.96,111.37,15.05,109.66,15.02,107.96z"></path>
			<path class="st3" d="M116.21,107.99c0-1.57-0.03-3.13,0.01-4.7c0.04-1.64,0.51-3.12,1.85-4.19c1.02-0.82,2.24-1.16,3.51-1.31     c2.7-0.3,5.39-0.09,8.07,0.18c0.56,0.06,0.7,0.23,0.7,0.79c0,0.97,0,1.93,0,2.9c0,0.51-0.2,0.71-0.72,0.71c-1.87,0-3.73,0-5.6,0     c-0.15,0-0.3,0-0.45,0c-0.96,0.03-1.3,0.37-1.31,1.33c0,0.53,0.02,1.06-0.01,1.59c-0.02,0.34,0.07,0.43,0.42,0.43     c2.22-0.02,4.44-0.01,6.66-0.01c0.12,0,0.25-0.01,0.37,0.01c0.29,0.06,0.5,0.22,0.5,0.55c0,1.05,0.01,2.1,0,3.15     c0,0.41-0.23,0.59-0.72,0.59c-0.65,0.01-1.31,0-1.96,0c-1.62,0-3.24,0.01-4.86-0.01c-0.33,0-0.41,0.09-0.4,0.41     c0.02,0.63,0,1.25,0.01,1.88c0.01,0.96,0.34,1.3,1.3,1.32c0.75,0.02,1.5,0.01,2.25,0.01c1.25,0,2.51,0,3.76,0     c0.58,0,0.76,0.18,0.76,0.75c0,0.94,0,1.88,0,2.82c0,0.63-0.14,0.79-0.78,0.85c-0.94,0.09-1.87,0.2-2.81,0.23     c-1.71,0.06-3.43,0.16-5.14-0.06c-1.48-0.18-2.89-0.58-3.97-1.69c-1.03-1.06-1.39-2.38-1.42-3.81     C116.18,111.15,116.21,109.57,116.21,107.99z"></path>
			<path class="st3" d="M77.3,113.99c0-1.13-0.01-2.26,0.01-3.39c0-0.26-0.05-0.42-0.3-0.54c-0.73-0.36-1.21-0.98-1.55-1.68     c-0.87-1.78-1.71-3.58-2.55-5.38c-0.67-1.43-1.34-2.86-2.01-4.29c-0.28-0.6-0.18-0.77,0.47-0.77c1.62,0,3.24,0,4.86,0     c0.67,0,0.76,0.06,1,0.68c0.9,2.25,1.79,4.49,2.69,6.74c0.04,0.1,0.07,0.21,0.12,0.3c0.06,0.12,0.13,0.24,0.3,0.24     c0.15-0.01,0.21-0.11,0.26-0.22c0.08-0.19,0.16-0.38,0.23-0.56c0.87-2.17,1.73-4.34,2.6-6.51c0.24-0.6,0.31-0.65,0.97-0.65     c1.62,0,3.24,0,4.86,0c0.66,0,0.77,0.18,0.5,0.75c-1.44,3.07-2.87,6.14-4.31,9.2c-0.44,0.94-0.98,1.8-1.97,2.26     c-0.21,0.1-0.13,0.28-0.13,0.43c0,2.22,0,4.44,0,6.66c0,0.72-0.16,0.88-0.89,0.88c-1.44,0-2.89,0-4.33,0     c-0.66,0-0.82-0.17-0.82-0.82C77.3,116.19,77.3,115.09,77.3,113.99z"></path>
			<path class="st3" d="M162.31,107.99c-0.02-1.51-0.04-3.02,0.36-4.5c0.85-3.08,2.91-4.88,5.98-5.52c2.3-0.48,4.6-0.38,6.88,0.15     c0.78,0.18,0.82,0.26,0.82,1.06c0,0.95,0,1.91,0,2.86c0,0.67-0.14,0.79-0.81,0.71c-1.26-0.14-2.52-0.23-3.79-0.23     c-1.96,0-2.93,0.71-3.17,2.64c-0.25,1.96-0.28,3.94,0.04,5.9c0.28,1.71,1.19,2.42,2.93,2.44c1.36,0.02,2.72-0.08,4.08-0.22     c0.55-0.06,0.72,0.06,0.72,0.6c0.01,1.09,0,2.18,0.01,3.27c0,0.37-0.17,0.57-0.52,0.68c-0.8,0.25-1.62,0.38-2.44,0.44     c-1.87,0.16-3.73,0.15-5.54-0.4c-3.08-0.94-4.81-3.07-5.37-6.21C162.26,110.44,162.32,109.21,162.31,107.99z"></path>
			<path class="st3" d="M153.46,108.02c0-3.09,0-6.18,0-9.28c0-0.68,0.13-0.81,0.81-0.81c1.49,0,2.97,0,4.46,0     c0.69,0,0.82,0.14,0.82,0.81c0,6.2,0,12.4,0,18.59c0,0.6-0.17,0.79-0.77,0.79c-1.51,0-3.02,0-4.54,0c-0.6,0-0.78-0.18-0.78-0.78     C153.46,114.23,153.46,111.12,153.46,108.02z"></path>
		</g>
	</g>
	<g>
		<path class="st3" d="M205.25,114.89c0,1.72-1.32,3.04-3.04,3.04s-3.08-1.32-3.08-3.04c0-1.68,1.36-3,3.09-3    C203.93,111.89,205.25,113.21,205.25,114.89z M199.8,114.89c0,1.4,1.04,2.49,2.43,2.49c1.34,0.02,2.36-1.09,2.36-2.47    c0-1.38-1.02-2.49-2.4-2.49C200.84,112.42,199.8,113.53,199.8,114.89z M201.67,116.55h-0.58v-3.15c0.32-0.06,0.66-0.09,1.09-0.09    c0.53,0,0.79,0.09,0.98,0.25c0.19,0.13,0.32,0.38,0.32,0.68c0,0.38-0.28,0.62-0.6,0.74V115c0.26,0.11,0.42,0.36,0.51,0.77    c0.09,0.47,0.17,0.66,0.25,0.77h-0.6c-0.09-0.11-0.17-0.4-0.26-0.81c-0.08-0.36-0.28-0.51-0.72-0.51h-0.38V116.55z M201.67,114.77    h0.4c0.42,0,0.81-0.13,0.81-0.49c0-0.3-0.21-0.53-0.75-0.53c-0.23,0-0.36,0.02-0.45,0.04V114.77z"></path>
	</g>
</g>
</svg>