<svg xmlns="http://www.w3.org/2000/svg" version="1.1" id="layer" x="0px" y="0px" viewBox="-153 -46 652 652" style="enable-background:new -153 -46 652 652;" xmlns:xlink="http://www.w3.org/1999/xlink" xml:space="preserve">
<style type="text/css">
	.st0{fill:#3B741D;}
</style>
<path id="Combined-Shape" class="st0" d="M97.6,140.1c53.9,2.4,107.3,11.3,159.1,26.3c77.8,22.9,160.7,27.6,201.6,11  c8.5-3.5,17.5,3.9,14.7,11.9C452.9,247.5,401,366,277.8,406l-3.8,1.2l-0.4,0.1c-28.7,8.9-58.6,13-88.6,12.3  c-113.3-3-178.6-48.8-215-92.2c-4.1-5-11.2-6.2-16.7-3c-20.4,12.5-39.7,26.6-57.7,42.3c-3.1,2.6-7.1,3.8-11.1,3  c-4-0.7-7.4-3.2-9.4-6.7c-1.7-3.3-2-7.1-0.8-10.6c1.1-3.5,3.6-6.4,6.9-8.1c41.4-21.9,70.7-35.6,90.6-43.9c0.4-0.2,0.8-0.3,1.2-0.5  c1.7-0.7,3.3-1.4,4.8-2c10.7-4.3,35.5-14.8,43.4-16.2c0,0,0.1,0,0.1,0c1.3-0.2,2.5-1,3.1-2.2l0.2-0.6l2.3-15.6H27l0.2-1.2l4.5-32.4  l23.1,38.5c0.4,0.7,1.1,1.2,1.8,1.3l0.6,0.1h10.6c1.2,0,2.3-0.8,2.7-2l0.1-0.5l8.3-60c0.1-0.8-0.2-1.7-0.7-2.3  c-0.4-0.5-0.9-0.8-1.5-0.9l-0.6-0.1H65.6c-1.3,0-2.3,0.8-2.7,2l-0.1,0.5l-4.9,35.9l-22.6-37c-0.4-0.7-1.1-1.2-1.9-1.3l-0.6-0.1H21.6  c-1.2,0-2.3,0.8-2.7,1.9l-0.1,0.5l-7.8,56.4l0,0.3h-0.1L9,277.2c-18.5-1.4-37.1,0.7-54.8,6.3c-2.4,0.6-5,0.1-7.1-1.4  c-2.1-1.4-3.5-3.7-3.8-6.2C-67.2,226.5-40,174.5,15.2,153.1c0.6-0.2,1.2-0.5,1.9-0.7C42.9,142.9,70.2,138.7,97.6,140.1z   M273.1,284.3h-14.7c-0.7,0-1.4,0.4-1.8,0.9c-0.3,0.4-0.4,1-0.4,1.5l0.1,0.5l19.5,55.6c0.1,0.4,0.2,0.9,0.1,1.3l-0.1,0.4l-17.1,35.6  c-0.3,0.7-0.3,1.5,0.1,2.2c0.3,0.5,0.8,0.9,1.4,1l0.4,0H276c0.7,0,1.3-0.3,1.7-0.8l0.3-0.4l45.2-94.6c0.3-0.7,0.3-1.5-0.1-2.2  c-0.3-0.5-0.8-0.9-1.4-1l-0.4,0h-15.2c-0.7,0-1.3,0.3-1.7,0.9l-0.3,0.4l-14.4,32c-0.4,0.8-1.2,1.3-2.1,1.3c-0.7,0-1.4-0.4-1.7-1  l-0.2-0.5l-10.5-31.5C274.8,284.9,274,284.3,273.1,284.3z M-43.3,342.7c3.5-0.1,6.9,1.3,9.4,3.7c2.5,2.5,3.9,5.8,3.9,9.4  c0.1,5.5-3,10.5-8,12.7c-5,2.2-10.8,1.1-14.6-2.7c-3.9-3.8-5.1-9.7-3-14.7C-53.6,346-48.8,342.7-43.3,342.7z M83.5,283.4H71.3  c-1,0-1.9,0.4-2.5,1.2c-0.5,0.6-0.7,1.4-0.7,2.1l0.1,0.6L83.7,365c0.3,1.3,1.3,2.3,2.6,2.6l0.6,0h4.3c1,0,1.9-0.4,2.5-1.2l0.3-0.5  l24-44.6c0.1-0.2,0.3-0.3,0.4-0.2c0.1,0,0.2,0.1,0.3,0.2l0.1,0.2l11.3,43.7c0.3,1.3,1.3,2.2,2.6,2.4l0.5,0h4.3c1,0,2-0.5,2.6-1.3  l0.3-0.5l37.4-77.7c0.5-1,0.4-2.2-0.2-3.2c-0.5-0.8-1.3-1.3-2.2-1.5l-0.6,0h-13c-1.1,0-2.1,0.5-2.7,1.4l-0.3,0.5l-18.8,41.5  c-0.1,0.1-0.2,0.2-0.4,0.2c-0.1,0-0.2-0.1-0.3-0.2l-0.1-0.2l-10.5-40.8c-0.3-1.3-1.4-2.2-2.6-2.4l-0.5,0h-5.7c-1,0-1.9,0.4-2.5,1.2  l-0.3,0.5l-22.4,41.7c-0.1,0.2-0.3,0.3-0.5,0.2c-0.1,0-0.2-0.1-0.3-0.2l-0.1-0.1l-7.4-40.6C86.4,284.5,85,283.4,83.5,283.4z   M-48.4,346.7c-3.2,1.9-5,5.4-4.9,9.1c-0.1,2.8,0.9,5.4,2.9,7.4c1.9,2,4.5,3.1,7.3,3.1c2.7,0,5.3-1.1,7.1-3.1c1.9-2,2.9-4.6,2.8-7.3  c0.2-3.7-1.7-7.2-4.8-9.1S-45.3,344.9-48.4,346.7z M-38.9,350.1c0.8,0.7,1.3,1.8,1.3,2.9c-0.1,1.5-1.2,2.7-2.7,3v0.2  c1.3,0.5,2.2,1.8,2.4,3.2c0.1,1.1,0.5,2.3,1,3.3h-3.2c-0.5-1-0.8-2.1-1-3.2c-0.2-1.4-1-2.1-2.7-2.1h-1.4l0,5.3h-3v-13.1  c1.6-0.3,3.3-0.4,5-0.4C-41.8,349-40.3,349.4-38.9,350.1z M-43.6,351.3c-0.6,0-1.1,0-1.7,0.2v3.8h1.4c1.7,0,3-0.6,3-1.9  C-40.9,352.1-41.7,351.3-43.6,351.3z M225.5,283.3c-15.2,0-26.8,3.7-34.9,11.1c-8.1,7.3-12.6,17.8-12.2,28.8  c-0.3,7.3,2,14.5,6.5,20.3c3.9,5.1,9.9,8,16.3,7.9c6.3-0.2,12.4-2.3,17.4-6.2l1.3-1.1l-0.3,2.2c-0.1,1,0.1,2,0.8,2.7  c0.5,0.6,1.2,1,2,1.1l0.6,0.1h12.4c1.5,0,2.8-1,3.2-2.3l0.1-0.6l8.2-58.5c0.3-1.8-0.9-3.5-2.7-3.9  C238,283.8,231.7,283.3,225.5,283.3z M220.4,299.5l1.4,0.1c0.9,0,1.9,0,2.8,0.1l1.4,0.1l-4.2,29.9c-0.1,0.9-0.6,1.7-1.2,2.2  c-3.6,3-8.1,4.8-12.8,4.9c-2.7,0.1-5.3-1.1-6.9-3.3c-1.8-2.7-2.7-6-2.5-9.3c-0.2-6.4,1.9-12.6,5.9-17.5c3.8-4.2,9.1-6.8,14.7-7.1  L220.4,299.5z M293.2,225.3c-4.5,5.1-6.9,11.8-6.7,18.6c-0.3,6.8,2.2,13.4,6.9,18.2c5,4.7,11.7,7.1,18.5,6.8  c5.4-0.1,10.7-1.2,15.7-3c1-0.4,1.8-1.1,2.2-2.1l0.2-0.6l1.8-8.6c0.1-0.4-0.1-0.9-0.4-1.1c-0.3-0.3-0.8-0.4-1.2-0.2  c-5.3,2.4-11,3.9-16.8,4.4c-3.4,0.3-6.7-1.1-9-3.6c-2.3-2.5-3.3-6-2.7-9.3c0-0.1,0-0.2,0.1-0.2l0.1-0.1l0.1,0h29.6  c2,0,3.7-1.5,3.9-3.5c0.2-1.2,0.2-2.5,0.2-3.7c0.2-5.8-1.9-11.5-5.9-15.7c-3.5-3.4-8-5.5-12.9-5.8  C308,214.9,299.1,218.4,293.2,225.3z M168.7,205.6h-11.6c-0.7,0-1.4,0.5-1.7,1.1l-0.1,0.4l-1.3,7.8c-0.1,0.7-0.7,1.3-1.3,1.5l-0.4,0  H145c-0.7,0-1.4,0.5-1.7,1.1l-0.1,0.4l-1.3,7.7c-0.1,0.5,0,1.1,0.4,1.5c0.3,0.3,0.6,0.5,1,0.6l0.4,0h6c0.5,0,1.1,0.2,1.4,0.6  c0.3,0.3,0.4,0.7,0.4,1.1l0,0.4l-3.2,17.5c-0.3,1.5-0.5,3-0.4,4.5c-0.2,4.5,1.3,8.9,4.2,12.3c3,3.2,7.3,5,11.6,4.8  c4.1-0.1,8.2-1,12-2.8c0.5-0.2,0.9-0.7,1-1.3l0.1-0.4v-9.4c0-0.6-0.3-1.2-0.8-1.5c-0.5-0.3-1.2-0.4-1.7-0.1c-1.9,1-4,1.6-6.2,1.8  c-3,0-4.5-2.3-4.5-6.8c0-0.9,0.1-1.8,0.2-2.7l0.2-1.3l2.7-15.2c0.1-0.7,0.7-1.3,1.3-1.5l0.4,0h21.3l-3,21.3c-0.2,1.3-0.2,2.7-0.2,4  c-0.2,4.2,1.1,8.3,3.9,11.5c2.9,2.9,6.9,4.4,11,4.2c5.6-0.1,11-2.1,15.3-5.6l1.2-1l-0.6,3.6c-0.1,0.5,0.1,1.1,0.4,1.5  c0.3,0.3,0.6,0.5,1,0.6l0.4,0h11.4c0.7,0,1.4-0.5,1.7-1.2l0.1-0.4l6.6-47.8c0.1-0.5-0.1-1.1-0.4-1.5c-0.3-0.3-0.6-0.5-1-0.6l-0.4,0  h-11.5c-0.8,0-1.4,0.5-1.7,1.2l-0.1,0.4l-4.3,31.4c-0.1,0.4-0.2,0.8-0.5,1.1c-4.5,4.7-8.6,7.1-12.4,7.1c-3.1,0-4.6-2.6-4.6-7.7  c0-1.4,0.1-2.7,0.2-4l0.3-2l3.5-25.3c0.1-0.5-0.1-1.1-0.4-1.5c-0.3-0.3-0.6-0.5-1-0.6l-0.4,0H171c-0.5,0-1-0.2-1.4-0.7  c-0.3-0.3-0.4-0.7-0.4-1.1l0-0.4l1.3-6.5c0.1-0.5,0-1.1-0.4-1.5C169.7,205.8,169.2,205.6,168.7,205.6z M119.3,215.6  c-11.8,0-21,2.9-27.3,8.7c-6.3,5.7-9.8,14-9.6,22.5c-0.2,5.7,1.6,11.4,5.1,15.9c3.1,4,7.8,6.2,12.8,6.2c4.9-0.1,9.7-1.8,13.6-4.8  l1.1-0.9l-0.4,2.8c-0.1,0.5,0.1,1,0.4,1.4c0.2,0.3,0.6,0.5,0.9,0.6l0.4,0h11.6c0.7,0,1.4-0.4,1.6-1.1l0.1-0.4l6.6-47.5  c0.1-0.9-0.5-1.8-1.4-2C129.7,216.1,124.5,215.6,119.3,215.6z M356.8,220.3c-3.5,3-5.5,7.4-5.3,12c0.1,2.1,0.7,4.1,1.9,5.8  c2.4,3.1,5.3,5.8,8.5,8.1c4.4,3.4,6.6,5.8,6.6,7.4c0,1.9-1.6,2.8-5,2.8c-3.9-0.3-7.7-1.2-11.4-2.7c-0.6-0.2-1.3-0.2-1.9,0.2  c-0.4,0.3-0.8,0.6-1,1.1l-0.1,0.5l-1.3,7c-0.2,1,0.3,2.1,1.2,2.5c5,2.5,10.5,3.8,16,3.9c5,0.2,9.8-1.4,13.7-4.5  c3.5-2.8,5.4-7.1,5.3-11.5c0-2.5-0.7-4.9-2-6.9c-2.4-3.4-5.4-6.4-8.9-8.7c-4-3-6-5.3-6-6.8c0-1.5,1.1-2.2,3.3-2.2  c2.2,0.1,4.4,0.5,6.5,1.1c1.8,0.5,3.6,1.1,5.4,1.9c0.7,0.3,1.4,0.2,2-0.2c0.5-0.3,0.9-0.8,1-1.3l0.1-0.4l0.7-7.3  c0.1-0.9-0.4-1.9-1.2-2.3c-4.5-2.5-9.6-3.8-14.7-3.9C365.5,215.4,360.7,217.1,356.8,220.3z M279,215.6c-3.4,0-7.2,2.4-11.4,7.2  l-1,1.3l-0.2-0.2l0.7-4.8c0.1-0.7-0.1-1.3-0.5-1.9c-0.3-0.4-0.8-0.7-1.2-0.8l-0.5-0.1h-10.6c-1,0-1.8,0.6-2.1,1.5l-0.1,0.5  l-6.5,46.9c-0.1,0.7,0.1,1.3,0.5,1.8c0.3,0.4,0.7,0.6,1.2,0.8l0.5,0.1h10.6c1,0,1.8-0.6,2.1-1.5l0.1-0.5l3.9-28.6  c0.7-1.7,1.8-3.1,3.2-4.3c1.5-1.9,3.7-3,6-3.2c2,0.2,3.9,1.2,5.1,2.8c0.5,0.5,1.2,0.8,2,0.7c0.6-0.1,1.1-0.4,1.5-0.9l0.2-0.4  l4.7-9.5c0.4-0.8,0.3-1.9-0.3-2.6C285.1,217.6,282.2,216,279,215.6z M116.4,228.4c1.1,0,2.2,0,3.3,0.2l-3.3,23.8  c-0.1,0.4-0.3,0.8-0.6,1.1c-2.9,2.5-6.5,4-10.3,4.1c-2.1,0.1-4.1-0.9-5.4-2.6c-1.4-2.1-2.1-4.7-2-7.3c-0.1-5,1.5-9.9,4.6-13.8  C106.2,230,111.2,228,116.4,228.4z M313.7,226.1c2-0.1,4,0.7,5.4,2.1c1.4,1.5,2.1,3.4,2,5.4l0,1l0,0l-0.1,1h-15.2  c-0.6,0-1.2-0.3-1.5-0.8c-0.3-0.5-0.4-1.1-0.1-1.7C305.6,229,309.4,226.2,313.7,226.1z M356.9,204.7h-8.2c-0.7,0-1.3,0.3-1.7,0.8  l-0.3,0.4l-5.9,11.7c-0.4,0.7-0.3,1.5,0.1,2.2c0.3,0.5,0.8,0.9,1.4,1l0.5,0l2.2,0c0.4,0,0.8-0.1,1.2-0.3l0.3-0.3l11.9-11.7  c0.6-0.6,0.9-1.6,0.5-2.4C358.6,205.2,357.8,204.6,356.9,204.7z"></path>
</svg>