<svg xmlns="http://www.w3.org/2000/svg" version="1.1" id="Layer_1" x="0px" y="0px" viewBox="0 0 216 216" style="enable-background:new 0 0 216 216;" xmlns:xlink="http://www.w3.org/1999/xlink" xml:space="preserve">
<style type="text/css">
	.st0{fill:#396238;}
	.st1{fill:#446D3D;}
	.st2{fill:#602628;}
	.st3{fill:#2E6EA7;}
	.st4{fill:#272425;}
	.st5{fill:#272525;}
	.st6{fill:#FFFFFF;}
</style>
<g>
	<g id="sLyjbC_2_">
		<g>
			<path class="st0" d="M42.14,103.12c1.96,0.13,3.91,0.52,5.77,1.17c0.35,0.12,0.71,0.26,0.99,0.52c0.51,0.48,0.58,1.26,0.62,1.96     c0.5,8.88,1.45,17.92,5.03,26.07c0.99-9.78,1.98-19.62,4.81-29.03c0.27-0.9,0.83-2.59,2.01-2.48c1.28,0.12,2.62,1.01,3.46,1.93     c0.1,0.11,0.2,0.23,0.23,0.37c0.05,0.28-0.16,0.53-0.36,0.73c-1.7,1.81-2.69,4.16-3.47,6.52c-1.29,3.91-2.09,7.96-2.74,12.03     c-0.85,5.33-1.46,10.73-1.25,16.13c0.01,0.2,0.01,0.41-0.09,0.59c-0.17,0.29-0.56,0.35-0.9,0.38c-1.85,0.16-3.98,0.21-5.26-1.13     c-0.55-0.58-0.86-1.34-1.14-2.09c-0.62-1.68-1.16-3.39-1.66-5.1c-2.15-7.28-3.81-14.7-4.96-22.2c-0.69,0.93-1.05,2.06-1.38,3.17     c-3.01,10.25-4.22,21.02-3.54,31.68c-1.46-0.15-3.07-0.39-3.99-1.52c-0.87-1.07-0.83-2.59-0.72-3.97     c0.87-10.54,3.83-20.82,7.61-30.71C41.83,106.51,42.47,104.8,42.14,103.12z"></path>
			<path class="st0" d="M62.78,66.71c2.16,0.31,4.33,0.32,6.5,0.31c4.23-0.02,8.42-0.55,12.63-0.9c3.95-0.32,7.82-1.21,11.74-1.76     c3.18-0.45,6.36-0.83,9.56-1.04c1.87-0.12,2.55,0.33,3.26,2.05c0.83,1.97,0.82,1.9-1.22,2.09c-3.91,0.36-7.82,0.81-11.73,1.21     c-2.33,0.24-4.66,0.47-6.99,0.66c-0.63,0.05-0.87,0.36-1.07,0.91c-1.74,4.87-3.06,9.86-4.24,14.9     c-1.21,5.15-2.23,10.34-2.71,15.61c-0.06,0.62-0.25,0.68-0.79,0.55c-1.78-0.42-2.97-1.59-3.99-3.01     c-0.2-0.28-0.09-0.55-0.03-0.83c1.19-6.01,2.9-11.89,4.46-17.8c0.7-2.65,1.44-5.29,2-7.98c0.22-1.07,0.2-1.09-0.86-0.88     c-4.25,0.82-8.55,0.99-12.86,0.91c-0.57-0.01-1.16-0.09-1.72-0.21c-2.42-0.51-2.85-2.37-2.58-4.28     C62.2,66.86,62.39,66.65,62.78,66.71z"></path>
			<path class="st0" d="M140.15,97.41c1.66-2.97,2.73-6.28,3.13-9.67c-0.92,1.76-2.07,3.4-3.41,4.86c-0.41,0.45-0.86,0.89-1.42,1.14     c-1.43,0.63-3.19-0.29-3.9-1.68c-1.07-2.09-0.25-4.62,0.36-6.72c0.68-2.31,1.61-4.55,2.87-6.61c0.5-0.81,1.07-1.62,1.89-2.1     c0.82-0.48,1.95-0.55,2.68,0.06c0.14,0.12,0.27,0.27,0.32,0.46c0.1,0.36-0.11,0.73-0.3,1.04c-2.36,3.83-3.9,8.16-4.5,12.62     c-0.04,0.32-0.05,0.71,0.21,0.9c0.34,0.25,0.8-0.05,1.1-0.35c3.81-3.83,5.24-9.35,7.89-14.07c0.1-0.18,0.22-0.38,0.41-0.47     c0.22-0.11,0.49-0.06,0.74,0c0.51,0.12,1.02,0.23,1.52,0.35c0.26,0.06,0.55,0.13,0.71,0.34c0.27,0.34,0.1,0.84-0.07,1.25     c-3.05,7.05-3.67,15.14-7.82,21.61c-1.45,2.27-3.39,4.33-5.88,5.35s-5.59,0.81-7.58-1c-0.29-0.26-0.52-0.8-0.16-0.97     c0.2-0.1,0.43,0.04,0.62,0.16c1.36,0.82,3.14,0.72,4.58,0.06c1.44-0.66,2.61-1.82,3.61-3.05     C138.65,99.82,139.45,98.65,140.15,97.41z"></path>
			<path class="st0" d="M93.72,118.07c0.33-1.19,0.73-2.37,1.19-3.51c0.54-1.32,1.17-2.61,1.88-3.85c0.6-1.06,1.26-2.58,2.41-3.14     c0.36-0.18,0.78-0.26,1.18-0.25c0.74,0.01,1.45,0.28,2.12,0.6c0.17,0.08,0.35,0.18,0.42,0.36c0.09,0.23-0.05,0.48-0.17,0.69     c-2.35,3.81-4.08,8-5.11,12.36c-0.26,1.1-0.48,2.22-0.41,3.35c0.01,0.13,0.02,0.26,0.1,0.36c0.12,0.16,0.38,0.17,0.56,0.08     c0.18-0.09,0.31-0.26,0.43-0.42c2.23-2.99,4.49-6.02,5.97-9.44c0.81-1.88,1.39-3.88,2.4-5.66c0.35-0.61,0.78-1.22,1.43-1.48     c0.92-0.38,1.96,0.06,2.86,0.49c0.21,0.1,0.44,0.22,0.54,0.43c0.1,0.22,0.04,0.47-0.03,0.7c-0.84,2.8-2.29,5.4-3.2,8.18     c-0.91,2.78-1.24,5.96,0.13,8.55c0.05,0.1,0.11,0.22,0.06,0.33c-0.07,0.14-0.27,0.12-0.41,0.09c-1.59-0.35-3.33-0.79-4.28-2.12     c-0.76-1.05-0.84-2.42-0.89-3.72c-1.19,1.46-2.3,2.98-3.32,4.56c-0.52,0.8-1.1,1.69-2.02,1.96c-0.8,0.24-1.66-0.05-2.41-0.4     c-0.68-0.32-1.36-0.71-1.78-1.33c-0.58-0.86-0.57-1.97-0.48-3.01C93,121.22,93.3,119.63,93.72,118.07z"></path>
			<path class="st0" d="M77.91,118.09c0.12,0.24,0,0.55-0.12,0.8c-0.89,1.93-1.49,3.98-1.99,6.04c-0.43,1.77-0.79,3.56-0.8,5.38     c0,0.93,0.1,1.92,0.65,2.67c0.17,0.23,0.39,0.53,0.24,0.77c-0.07,0.12-0.22,0.18-0.35,0.23c-0.61,0.23-1.24,0.45-1.89,0.47     c-0.65,0.02-1.34-0.19-1.76-0.7c-0.32-0.39-0.45-0.91-0.52-1.41c-0.28-1.99,0.16-4.01,0.65-5.97c-1.46,2.83-2.99,5.74-5.5,7.71     c-0.62,0.49-1.35,0.93-2.14,0.93c-1.12,0-2.08-0.89-2.59-1.89c-0.71-1.37-0.82-2.97-0.67-4.5c0.31-3.27,1.71-6.36,3.57-9.06     c1.13-1.64,2.49-3.19,4.3-4.1c0.42-0.21,0.67-0.37,1.15-0.31c0.47,0.07,0.93,0.23,1.35,0.46c0.82,0.44,1.49,1.16,1.84,2.03     c0.04,0.09,0.07,0.18,0.06,0.28c-0.03,0.23-0.28,0.35-0.5,0.44c-2.37,0.97-4.14,3.02-5.51,5.18c-1.52,2.39-2.7,5.12-2.61,7.96     c0.01,0.42,0.15,0.95,0.56,1.03c0.2,0.04,0.4-0.05,0.58-0.15c0.99-0.56,1.73-1.48,2.39-2.41c1.18-1.67,2.18-3.46,3.11-5.28     c1.09-2.13,2.09-4.31,2.99-6.53c0.19-0.48,0.46-1.02,0.97-1.11c0.21-0.04,0.42,0.01,0.62,0.07c0.56,0.16,1.1,0.39,1.61,0.68     c0.11,0.07,0.23,0.14,0.3,0.25C77.9,118.06,77.91,118.07,77.91,118.09z M72.15,126l0.01,0.08l-0.04-0.01L72.15,126z"></path>
			<path class="st0" d="M85.53,88.86c0.48-5.35,2.64-9.82,7.07-13.01c1.36-0.98,2.87-1.64,4.62-1.02c0.87,0.31,1.54,0.89,2.19,1.51     c0.29,0.28,0.28,0.6,0.28,0.95c-0.04,3.96-1.69,7.06-4.95,9.32c-1.4,0.97-2.86,1.85-4.42,2.55c-0.54,0.24-0.74,0.55-0.66,1.13     c0.11,0.8,0.13,1.61,0.51,2.36c0.45,0.88,1,1.17,1.96,1.03c1.34-0.2,2.42-0.91,3.44-1.73c1.09-0.87,2-1.91,2.89-2.99     c0.18-0.21,0.31-0.59,0.74-0.26c0.36,0.28,0.35,0.51,0.11,0.86c-1.43,2.07-3.11,3.88-5.26,5.2c-2.41,1.48-5.2,0.98-7.03-1.21     C85.87,92.2,85.5,90.61,85.53,88.86z M89.99,87.73c1.97-1.01,3.61-2.4,4.97-4.11c0.95-1.19,1.65-2.51,1.9-4.03     c0.07-0.42,0.35-1.01,0.03-1.23c-0.41-0.29-0.92,0.13-1.32,0.38C92.2,80.77,90.85,84.09,89.99,87.73z"></path>
			<path class="st0" d="M92.51,111.03c0.15,0.05,0.28,0.14,0.34,0.29c0.16,0.4-0.3,0.76-0.71,0.91c-0.9,0.35-1.85,0.57-2.81,0.64     c-0.43,0.03-0.9,0.05-1.21,0.34c-0.19,0.18-0.29,0.42-0.39,0.66c-1.65,4.13-3.06,8.45-3.11,12.9c-0.01,0.87,0.16,1.94,0.98,2.24     c0.38,0.14,0.81,0.07,1.21-0.04c1-0.27,1.95-0.74,2.77-1.37c0.28-0.22,0.79-0.4,0.91-0.06c0.07,0.19-0.07,0.38-0.21,0.52     c-0.73,0.79-1.56,1.49-2.45,2.09c-0.57,0.38-1.19,0.72-1.87,0.78c-0.85,0.08-1.68-0.28-2.45-0.64c-1.18-0.56-2.44-1.25-2.95-2.45     c-0.33-0.78-0.29-1.67-0.21-2.51c0.38-4.01,1.54-7.89,2.69-11.75c-0.6,0.03-1.21,0.05-1.81,0.08c-0.15,0.01-0.32,0.01-0.44-0.08     c-0.11-0.08-0.16-0.2-0.21-0.33c-0.18-0.46-0.3-0.94-0.36-1.44c-0.01-0.1-0.02-0.22,0.03-0.3c0.09-0.15,0.29-0.16,0.45-0.16     c0.66,0,1.32,0,1.99-0.01c0.41,0,0.85-0.01,1.18-0.25c0.3-0.21,0.45-0.57,0.6-0.91c0.65-1.5,1.42-2.94,2.31-4.3     c0.38-0.58,0.79-1.42,1.39-1.8c0.59-0.36,1.32-0.21,1.94-0.01c0.6,0.19,1.19,0.39,1.78,0.62c0.13,0.05,0.27,0.11,0.36,0.22     c0.23,0.28,0.03,0.69-0.16,1c-1.07,1.66-2.03,3.39-2.87,5.18c0.91-0.04,1.82-0.08,2.73-0.11     C92.13,110.97,92.34,110.97,92.51,111.03z"></path>
			<path class="st0" d="M108.38,81.96c1.96-1.75,3.5-3.6,4.88-5.6c0.39-0.57,0.76-1.16,1.13-1.75c0.51-0.82,2.01-1.01,2.74-0.36     c0.22,0.2,0.17,0.38,0.12,0.62c-0.46,2.03-0.61,4.03,0.22,6.04c0.27,0.64-0.41,1.15-0.75,1.66c-0.63,0.93-0.68,0.92-1.62,0.28     c-0.9-0.61-1.65-1.37-2.14-2.35c-0.27-0.54-0.46-0.54-0.93-0.18c-3.61,2.84-5.68,6.55-6.42,11.05c-0.13,0.8-0.28,1.59-0.4,2.39     c-0.06,0.45-0.17,0.7-0.71,0.52c-0.92-0.31-1.74-0.76-2.49-1.37c-0.45-0.37-0.36-0.82-0.29-1.27c0.42-2.77,1.04-5.51,1.74-8.22     c0.73-2.82,1.42-5.67,2.55-8.36c0.9-2.14,0.77-2.21,3.28-1.35c0.63,0.21,1.38,0.43,1.7,0.98c0.39,0.67-0.44,1.12-0.71,1.67     c-0.82,1.62-1.4,3.33-1.94,5.05C108.33,81.53,108.37,81.65,108.38,81.96z"></path>
			<path class="st0" d="M127.08,75.86c-0.03,0.05-0.06,0.1-0.09,0.15c-1.24,2.04-2.12,4.29-2.59,6.63c2.03-1.92,3.84-4.08,5.38-6.41     c0.36-0.55,0.72-1.11,1.24-1.51c0.52-0.4,1.25-0.6,1.84-0.32c0.22,0.1,0.41,0.27,0.51,0.49c0.16,0.38,0.01,0.8-0.1,1.19     c-0.36,1.25-0.37,2.59-0.03,3.85c0.15,0.54,0.36,1.09,0.31,1.65c-0.06,0.67-0.48,1.24-0.89,1.77c-0.12,0.16-0.27,0.33-0.47,0.36     c-0.15,0.02-0.3-0.05-0.43-0.12c-1.09-0.59-2-1.5-2.59-2.59c-0.12-0.22-0.29-0.49-0.54-0.47c-0.11,0.01-0.21,0.08-0.3,0.15     c-2.88,2.2-5.02,5.35-6.02,8.84c-0.45,1.59-0.67,3.25-1,4.87c-0.03,0.15-0.08,0.33-0.23,0.39c-0.09,0.03-0.19,0.01-0.28-0.02     c-0.79-0.23-1.54-0.59-2.21-1.06c-0.24-0.17-0.48-0.37-0.6-0.64c-0.14-0.32-0.09-0.68-0.04-1.02c0.91-6.01,2.43-11.96,4.7-17.61     c0.12-0.3,0.28-0.64,0.59-0.75c0.2-0.07,0.41-0.04,0.62,0.01c1.02,0.21,2,0.57,2.92,1.05c0.17,0.09,0.36,0.2,0.44,0.38     C127.32,75.35,127.21,75.62,127.08,75.86z"></path>
			<path class="st0" d="M142.11,129.05c-0.41,0.33-0.83,0.46-1.24,0.59c-2.27,0.71-3.44-0.09-3.6-2.48     c-0.11-1.67,0.26-3.27,0.65-4.88c0.03-0.13,0.06-0.27,0.06-0.42c-0.9,1.78-1.84,3.53-3.04,5.13c-0.88,1.16-1.85,2.23-3.11,2.98     c-1.26,0.76-2.43,0.59-3.43-0.5c-0.86-0.94-1.21-2.09-1.31-3.32c-0.28-3.52,0.91-6.65,2.59-9.64c0.69-1.24,1.51-2.4,2.5-3.43     c0.44-0.46,0.89-0.92,1.39-1.3c2.47-1.91,3.78-1.55,5.84,1.23c0.18,0.24,0.33,0.51-0.12,0.66c-2.87,0.96-4.61,3.2-6.14,5.61     c-1.26,1.99-2.16,4.15-2.39,6.53c-0.04,0.46-0.05,0.93,0,1.38c0.09,0.74,0.49,0.93,1.15,0.58c0.96-0.53,1.64-1.36,2.27-2.23     c2.31-3.24,3.93-6.86,5.59-10.45c0.33-0.71,0.63-1.42,0.92-2.15c0.15-0.39,0.37-0.56,0.78-0.46c0.28,0.07,0.57,0.09,0.84,0.18     c1.72,0.52,1.78,0.69,1.17,2.34c-1.31,3.56-2.53,7.14-2.49,11C141,127.11,141.15,128.2,142.11,129.05z"></path>
			<path class="st0" d="M176.79,118.83c0.16-0.08,0.34-0.07,0.52-0.06c0.98,0.06,1.95,0.3,2.84,0.69c0.15,0.07,0.31,0.15,0.39,0.29     c0.13,0.22,0.02,0.5-0.08,0.74c-3.78,8.55-4.5,18.48-9.9,26.1c-1.72,2.42-3.96,4.59-6.77,5.58c-2.8,0.99-6.21,0.59-8.3-1.52     c-0.3-0.3-0.53-0.86-0.17-1.07c0.3-0.17,0.64,0.13,0.9,0.36c0.85,0.72,2.09,0.76,3.18,0.54c3.73-0.74,6.5-3.9,8.43-7.17     c1.81-3.08,3.16-6.44,3.97-9.92c0.16-0.67,0.29-1.37,0.15-2.04c-1.1,2.02-2.43,3.91-3.96,5.62c-0.58,0.66-1.27,1.32-2.14,1.44     c-0.65,0.09-1.31-0.14-1.91-0.41c-0.88-0.39-1.78-0.92-2.22-1.79c-0.32-0.64-0.35-1.39-0.32-2.1c0.1-2.84,0.93-5.59,1.97-8.22     c0.49-1.24,1.05-2.41,1.64-3.59c0.58-1.16,1.04-2.34,2.05-3.22c1.07-0.93,2.78-1.3,3.91-0.45c0.15,0.11,0.29,0.24,0.36,0.41     c0.17,0.4-0.07,0.85-0.3,1.22c-2.75,4.47-4.57,9.51-5.29,14.7c-0.05,0.34-0.06,0.76,0.23,0.96c0.33,0.23,0.77-0.03,1.07-0.29     c2.66-2.31,4.25-5.59,5.76-8.77c1.19-2.51,2.39-5.01,3.58-7.52c0.09-0.19,0.19-0.39,0.37-0.49     C176.77,118.84,176.78,118.84,176.79,118.83z"></path>
			<path class="st0" d="M120.27,115.94c-2.22,2.02-3.4,4.63-4.1,7.48c-0.32,1.32-0.56,2.65-0.8,3.99c-0.09,0.48-0.24,0.69-0.74,0.44     c-0.31-0.15-0.65-0.23-0.96-0.38c-1.8-0.89-1.99-1.2-1.62-3.15c1.01-5.16,2.24-10.27,4.12-15.19c1.05-2.76,0.99-2.65,3.82-1.61     c0.11,0.04,0.21,0.1,0.31,0.15c1.34,0.66,1.33,0.66,0.55,1.95c-1.14,1.89-1.82,3.96-2.29,6.12c2.24-2.18,4.38-4.44,5.93-7.16     c0.65-1.15,1.44-1.12,2.65-0.77c0.4,0.11,0.52,0.35,0.41,0.79c-0.51,2.02-0.65,4.03,0.18,6.04c0.24,0.59-0.36,1.05-0.67,1.51     c-0.74,1.08-0.81,1.09-1.86,0.31c-0.99-0.74-1.74-1.68-2.31-2.88C121.92,114.3,121.03,115.04,120.27,115.94z"></path>
			<path class="st0" d="M150.9,106.8c0.95-2.01,1.67-4.11,2.73-6.07c0.55-1.02,1.13-2.02,1.74-2.99c0.23-0.36,0.49-0.56,0.92-0.4     c1.28,0.46,2.53,0.99,3.65,1.78c0.4,0.28,0.43,0.5,0.14,0.9c-6.16,8.42-9.09,18.09-10.86,28.19c-0.33,1.9-0.51,3.85-0.28,5.79     c0.08,0.72-0.3,0.78-0.72,0.48c-1.24-0.91-2.47-1.83-2.77-3.54c-0.45-2.52-0.03-4.96,0.49-7.39c1.17-5.4,2.83-10.65,4.71-15.84     C150.75,107.41,150.82,107.1,150.9,106.8C150.9,106.79,150.9,106.8,150.9,106.8z"></path>
			<path class="st0" d="M153.45,132.09c0.09-3,0.8-5.89,1.58-8.76c1.69-6.28,3.63-12.47,6.41-18.37c0.62-1.31,1.34-2.56,2.12-3.78     c0.27-0.43,0.56-0.57,1.07-0.38c1.23,0.44,2.41,0.97,3.49,1.71c0.37,0.25,0.51,0.45,0.19,0.88c-6.08,8.32-9.02,17.87-10.83,27.86     c-0.36,2-0.49,4.02-0.37,6.05c0.04,0.79-0.25,1.03-0.85,0.52c-0.94-0.8-2.1-1.46-2.45-2.8     C153.59,134.05,153.43,133.08,153.45,132.09z"></path>
		</g>
	</g>
	<g>
		<path class="st0" d="M182.45,134.68c0,1.22-0.98,2.19-2.23,2.19s-2.25-0.97-2.25-2.19c0-1.22,1-2.18,2.26-2.18    C181.47,132.5,182.45,133.45,182.45,134.68z M178.53,134.68c0,0.97,0.73,1.74,1.7,1.74c0.94,0.01,1.66-0.77,1.66-1.73    c0-0.97-0.72-1.75-1.69-1.75C179.26,132.93,178.53,133.72,178.53,134.68z M179.87,135.81h-0.51v-2.18    c0.2-0.03,0.48-0.07,0.84-0.07c0.41,0,0.6,0.07,0.74,0.17c0.13,0.09,0.23,0.25,0.23,0.47c0,0.27-0.2,0.44-0.45,0.52v0.03    c0.21,0.07,0.32,0.24,0.39,0.53c0.07,0.33,0.12,0.45,0.16,0.53h-0.53c-0.07-0.08-0.11-0.27-0.17-0.53    c-0.04-0.23-0.17-0.33-0.45-0.33h-0.24V135.81z M179.89,134.58h0.24c0.28,0,0.51-0.09,0.51-0.32c0-0.2-0.15-0.33-0.47-0.33    c-0.13,0-0.23,0.01-0.28,0.03V134.58z"></path>
	</g>
</g>
</svg>