<svg xmlns="http://www.w3.org/2000/svg" version="1.1" id="Layer_1" x="0px" y="0px" viewBox="0 0 216 216" style="enable-background:new 0 0 216 216;" xmlns:xlink="http://www.w3.org/1999/xlink" xml:space="preserve">
<style type="text/css">
	.st0{fill:#396238;}
	.st1{fill:#446D3D;}
	.st2{fill:#602628;}
	.st3{fill:#2E6EA7;}
	.st4{fill:#272425;}
	.st5{fill:#272525;}
	.st6{fill:#FFFFFF;}
</style>
<g>
	<g>
		<path class="st4" d="M108.56,78.99c0.04-0.03,0.09-0.05,0.11-0.1c0.03-0.09-0.07-0.16-0.16-0.18c-0.27-0.05-0.54,0.15-0.66,0.41    c-0.22,0.46-0.74,1.43-0.22,1.85c0.39,0.32,1.05,0,1.49,0.01c0.19,0,0.39,0.03,0.57,0.11c0.17,0.07,0.3,0.2,0.46,0.28    c0.17,0.08,0.4,0.07,0.58,0.04c0.08-0.01,0.16-0.04,0.2-0.1c0.07-0.09,0.02-0.22-0.04-0.32c-0.19-0.3-0.51-0.5-0.85-0.55    c-0.57-0.08-1.88,0.67-2.13-0.14C107.77,79.86,108.21,79.2,108.56,78.99z"></path>
		<path class="st4" d="M113.56,80.29c-0.04,0.01-0.11-0.02-0.18-0.05c-0.08-0.03-0.15-0.06-0.23-0.08    c-0.26-0.05-0.53,0.04-0.83,0.27c-0.18,0.14-0.44,0.37-0.53,0.69c-0.03,0.12,0.04,0.25,0.16,0.28c0.03,0.01,0.05,0.01,0.08,0.01    c0.1-0.01,0.18-0.07,0.21-0.17c0.04-0.15,0.15-0.29,0.36-0.45c0.19-0.15,0.34-0.21,0.46-0.18c0.05,0.01,0.1,0.03,0.14,0.05    c0.12,0.05,0.26,0.11,0.44,0.08c0.24-0.04,0.43-0.25,0.51-0.58c0.12-0.46,0.07-0.97-0.15-1.4c-0.21-0.43-0.59-0.78-1.03-0.96    c-0.12-0.05-0.25,0.01-0.3,0.12c-0.05,0.12,0.01,0.25,0.12,0.3c0.34,0.14,0.63,0.41,0.79,0.74c0.16,0.33,0.21,0.72,0.11,1.08    C113.67,80.18,113.61,80.28,113.56,80.29z"></path>
		<path class="st4" d="M111.16,83.95c-0.43-0.11-0.86-0.15-1.23-0.19c-0.45-0.04-0.93-0.07-1.48-0.08c-0.25-0.01-0.5,0.01-0.74,0.02    c-0.25,0.01-0.48,0.03-0.71,0.02c-0.27-0.01-0.46-0.04-0.65-0.1l-0.07-0.02c-0.21-0.06-0.5-0.14-0.81-0.03    c-0.11,0.04-0.17,0.14-0.16,0.25c-0.02,0.08-0.02,0.16,0.02,0.23c0.05,0.09,1.32,2.18,4.94,2.53c0.08,0.03,0.15,0.04,0.21,0.05    c0.07,0.01,0.14,0.01,0.22,0.01c0.07,0,0.15,0,0.25-0.01c0.01,0,0.02,0,0.05,0c0.16-0.01,0.33-0.03,0.49-0.05    c0.01,0,0.03,0.01,0.08,0c1.04-0.07,3.15-1.31,3.74-2.38c0.02-0.03,0.03-0.07,0.03-0.12c0.05-0.06,0.07-0.13,0.07-0.2v0    c-0.01-0.16-0.15-0.28-0.33-0.27c-0.16,0.01-0.35-0.02-0.55-0.04c-0.11-0.01-0.22-0.03-0.34-0.04c-0.36-0.03-0.7,0.01-1.01,0.06    c-0.13,0.02-0.26,0.04-0.39,0.06c-0.18,0.03-0.36,0.06-0.54,0.08c-0.08,0.01-0.16,0.02-0.25,0.02c-0.23,0.01-0.5,0.03-0.78,0.17    C111.19,83.93,111.17,83.94,111.16,83.95z M111.52,86.49L111.52,86.49C111.52,86.48,111.52,86.48,111.52,86.49L111.52,86.49z     M111.51,84.42c0.13-0.06,0.31-0.07,0.52-0.08c0.09-0.01,0.18-0.01,0.27-0.02c0.25-0.02,0.5-0.06,0.74-0.1l0.22-0.04    c0.28-0.04,0.52-0.06,0.74-0.06c0.04,0.03,0.07,0.04,0.1,0.05c0.09,0.02,0.18,0.04,0.22,0.1l-0.85,0.48    c-0.09,0.05-0.14,0.07-0.19,0.08c-0.03,0.01-0.06,0.01-0.09,0.01c-0.06,0-0.13,0.01-0.21,0.03c-0.04,0.01-0.08,0.02-0.12,0.03    l-0.07,0.03c-0.05,0.02-0.06,0.02-0.09,0.03c-0.03,0.01-0.07,0.01-0.12,0.01c-0.05,0-0.1,0-0.16,0.01    c-0.13,0.01-0.25,0.05-0.34,0.08l-0.03,0.01c-0.08,0.03-0.15,0.05-0.24,0.06c-0.14,0.02-0.29,0.03-0.45,0.04l-0.11,0.01    c-0.19,0.01-0.39,0.02-0.58,0.01c-0.18,0-0.35-0.02-0.55-0.06l-0.03-0.01c-0.15-0.03-0.33-0.06-0.51-0.06c-0.05,0-0.1,0-0.15,0.01    c-0.04,0-0.08,0.01-0.11,0.01c-0.06,0.01-0.11,0.01-0.15,0.01c0,0-0.01,0-0.01,0c-0.05,0-0.11-0.02-0.19-0.04l-0.04-0.01    c-0.04-0.01-0.07-0.03-0.12-0.04c-0.05-0.01-0.09-0.02-0.11-0.02l-0.37-0.04c-0.35-0.05-0.7-0.13-1-0.22    c-0.14-0.08-0.24-0.2-0.29-0.32c-0.01-0.02-0.01-0.04-0.02-0.07c0-0.01,0-0.01,0-0.02c0.29,0.01,0.56,0,0.83-0.01    c0.2-0.01,0.39-0.02,0.58-0.02h0c0.01,0,0.02,0,0.03,0c0.49,0,0.99,0.02,1.41,0.04l0.22,0.01c0.4,0.03,0.81,0.05,1.19,0.14    C111.37,84.49,111.45,84.47,111.51,84.42z"></path>
		<path class="st4" d="M114.15,86.64c-0.03-0.09-0.13-0.15-0.22-0.14l-0.11,0.01c-0.09,0.01-0.12,0.04-0.15,0.09    c-0.02,0.02-0.05,0.04-0.1,0.07l-0.44,0.26c-0.16,0.09-0.31,0.19-0.47,0.27c-0.48,0.26-0.87,0.37-1.22,0.35    c-0.13-0.01-0.23,0.09-0.24,0.21c-0.01,0.06,0.01,0.12,0.05,0.17c0.04,0.05,0.09,0.08,0.16,0.08c0.07,0.01,0.13,0.01,0.2,0.01    c0.4,0,0.83-0.12,1.3-0.38c0.17-0.09,0.33-0.18,0.49-0.27l0.45-0.26c0.06-0.04,0.12-0.08,0.2-0.14l0.02-0.02    C114.1,86.89,114.2,86.79,114.15,86.64z"></path>
		<path class="st4" d="M104.15,81.2c-0.07,0.04-0.12,0.11-0.13,0.19c-0.01,0.06,0.01,0.12,0.05,0.17c0.04,0.05,0.1,0.08,0.16,0.08    c0.05,0,0.1,0.01,0.16,0.01c0.44,0,0.92-0.15,1.35-0.42c0.48-0.31,0.83-0.74,0.98-1.21c0.02-0.07,0.01-0.15-0.04-0.21    c-0.08-0.1-0.22-0.11-0.31-0.03l-0.04,0.03c-0.34,0.28-0.67,0.54-1.02,0.76C104.96,80.8,104.59,80.99,104.15,81.2z"></path>
		<path class="st4" d="M113.11,92.08c-0.05-0.03-0.12-0.04-0.19-0.03c-0.04,0-0.07,0.01-0.11,0.01c-0.19,0.03-0.37,0.07-0.56,0.11    c-0.72,0.15-1.47,0.3-2.19,0.16c-0.91-0.18-1.86-0.4-2.58-1c-0.82-0.68-1.53-1.62-2.21-2.53c-0.17-0.23-0.35-0.46-0.52-0.68    c-0.76-0.97-0.78-2.14-0.8-3.38l-0.01-0.31c-0.01-0.51-0.06-1.22-0.36-1.43c-0.09-0.07-0.2-0.08-0.32-0.05    c-0.11,0.03-0.19,0.11-0.25,0.22c-0.15,0.31-0.05,0.93,0.33,1.89c0.2,0.51,0.28,1.02,0.37,1.51c0.11,0.62,0.21,1.27,0.54,1.89    c0.59,1.12,1.35,2.38,2.47,3.22c1.3,0.97,2.89,1.26,4.31,1.26c0.58,0,1.13-0.05,1.63-0.12c0.18-0.02,0.36-0.06,0.49-0.19    c0.09-0.09,0.13-0.22,0.11-0.34C113.24,92.2,113.19,92.12,113.11,92.08z"></path>
		<path class="st4" d="M100.46,76.25l-0.8,0.5c-0.32,0.2-0.66,0.45-0.73,0.83c-0.02,0.14-0.01,0.28,0.04,0.46    c0.1,0.35,0.29,0.6,0.54,0.72l0.03,0.01l0.14-0.01l0.42-1c0.09-0.21,0.18-0.43,0.31-0.63c0.26-0.39,0.67-0.66,1.07-0.92    c0.09-0.06,0.17-0.11,0.26-0.17c0.11-0.07,0.22-0.16,0.28-0.29l0.07-0.16l-0.18,0.02C101.36,75.67,100.88,75.98,100.46,76.25z"></path>
		<path class="st4" d="M98.58,74.07c0.25,0.18,0.55,0.27,0.82,0.34l1.26,0.35c0.02,0.01,0.05,0.01,0.09,0.01    c0.04,0,0.07-0.01,0.11-0.03c0.04-0.02,0.06-0.06,0.07-0.1c0.01-0.06-0.02-0.11-0.03-0.13c-0.09-0.15-0.26-0.2-0.41-0.25    l-0.05-0.01c-0.32-0.1-0.61-0.3-0.88-0.49c-0.28-0.2-0.58-0.4-0.8-0.66c-0.13-0.15-0.22-0.31-0.27-0.47    c-0.03-0.09-0.05-0.18-0.06-0.27c0-0.01,0-0.03,0-0.05c0.01-0.08,0.02-0.25-0.12-0.28c-0.05-0.01-0.1,0-0.14,0.03    c-0.13,0.1-0.16,0.41-0.16,0.41c-0.01,0.17,0.02,0.34,0.06,0.5l0.09,0.4c0.03,0.13,0.06,0.26,0.13,0.39    C98.36,73.87,98.46,73.97,98.58,74.07z"></path>
		<path class="st4" d="M118.9,82.75L118.9,82.75c-0.14,0.05-0.26,0.26-0.36,0.48l-0.01,0.03c-0.17,0.33-0.33,0.67-0.51,1    c-0.4,0.77-0.76,1.38-1.13,1.92c-0.03,0.04-2.8,4.27-2.76,4.46c0,0.01-0.02,0.04-0.03,0.05c-0.01,0.02-0.06,0.08-0.01,0.15    c0.02,0.03,0.05,0.04,0.08,0.04c0.03,0,0.06-0.01,0.07-0.01c0.14-0.05,4.15-5.64,4.9-7.51c0.05-0.13,0.1-0.27,0.04-0.41    C119.1,82.71,118.96,82.73,118.9,82.75z"></path>
		<path class="st4" d="M99.03,76.32l0.04,0.01l0.04-0.02c0.44-0.25,0.9-0.44,1.38-0.58c0.25-0.07,0.38-0.18,0.39-0.33    c0.01-0.09-0.05-0.17-0.13-0.2c-0.03-0.01-0.06-0.01-0.08-0.01c-0.09,0.01-0.16,0.04-0.23,0.07c-0.04,0.02-0.08,0.04-0.13,0.05    c-0.13,0.03-0.26,0.07-0.4,0.12c-0.27,0.1-0.54,0.22-0.79,0.36c-0.08,0.04-0.16,0.09-0.21,0.19c-0.03,0.06-0.03,0.14-0.01,0.21    C98.93,76.26,98.97,76.3,99.03,76.32z"></path>
		<path class="st4" d="M110.72,79.4c-0.2-0.07-0.35-0.24-0.44-0.44c-0.06-0.12-0.09-0.25-0.12-0.38c-0.03-0.13-0.03-0.29-0.19-0.31    c-0.13-0.01-0.27,0.06-0.33,0.18c-0.08,0.16-0.04,0.36,0.01,0.53c0.08,0.26,0.21,0.52,0.42,0.7c0.21,0.17,0.53,0.24,0.77,0.09    c0.08-0.05,0.15-0.13,0.12-0.22C110.94,79.46,110.81,79.44,110.72,79.4z"></path>
		<path class="st4" d="M96.63,78.37c-0.01-0.14-0.02-0.28-0.03-0.43c-0.04-0.59-0.09-1.21-0.36-1.76c-0.04-0.08-0.09-0.16-0.16-0.22    l0,0c-0.08-0.06-0.18-0.08-0.26-0.1c-0.04-0.01-0.08-0.02-0.12-0.03c-0.06-0.02-0.11-0.06-0.17-0.09    c-0.08-0.05-0.16-0.1-0.25-0.12c-0.13-0.03-0.28,0-0.37,0.09c-0.07,0.07-0.1,0.15-0.08,0.24c0.03,0.15,0.17,0.21,0.28,0.26    l0.03,0.01c0.21,0.1,0.37,0.29,0.44,0.51c0.02,0.06,0.03,0.12,0.04,0.19c0.01,0.06,0.02,0.12,0.04,0.18    c0.05,0.19,0.14,0.36,0.23,0.52c0.08,0.15,0.16,0.29,0.2,0.44c0.03,0.11,0.05,0.22,0.06,0.33c0.01,0.09,0.03,0.18,0.05,0.27    c0,0,0.09,0.36,0.25,0.48c0.05,0.03,0.09,0.05,0.13,0.05c0.03,0,0.05-0.01,0.07-0.02c0.09-0.06,0.07-0.19,0.06-0.25    C96.67,78.75,96.65,78.57,96.63,78.37z"></path>
		<path class="st4" d="M101.03,72.1c0.07,0.16,0.28,0.24,0.45,0.16c0.69-0.3,1.4-0.62,2.13-0.8c1.2-0.3,2.42-0.15,3.45,0.42    l0.11,0.06c0.8,0.45,1.63,0.91,1.88,1.68c0.14,0.42,0.18,0.93,0.22,1.48c0.04,0.47,0.07,0.96,0.18,1.42    c0.04,0.15,0.17,0.25,0.32,0.25c0.01,0,0.01,0,0.02,0c0.02,0,0.04,0,0.06-0.01c0.18-0.04,0.29-0.22,0.25-0.4    c-0.1-0.41-0.13-0.87-0.17-1.31c-0.04-0.55-0.09-1.03-0.21-1.48c-0.02-1.74-0.6-2.48-1.05-2.89c-0.45-0.42-1.07-0.4-1.62-0.39    l-0.26,0.01c-0.67,0.01-1.19,0.03-1.81-0.31c-1.03-0.56-2.44-0.33-3.41,0.56c-0.2,0.18-0.33,0.35-0.41,0.53    c-0.1,0.21-0.14,0.47-0.1,0.71C101,71.87,100.98,71.99,101.03,72.1z"></path>
		<path class="st4" d="M112.22,76.6c0.04,0.14,0.17,0.24,0.32,0.24c0.01,0,0.01,0,0.02,0c0.02,0,0.05-0.01,0.07-0.01    c0.08-0.03,0.16-0.08,0.2-0.16c0.04-0.08,0.05-0.17,0.03-0.25c-0.28-0.93-0.36-1.93-0.25-2.89c0.01-0.06,0.02-0.16,0.04-0.26    c0.02-0.14,0.05-0.29,0.06-0.37c0-0.02,0.01-0.04,0.01-0.07l0.02-0.01c0.03-0.03,0.06-0.05,0.09-0.08    c0.24-0.23,0.54-0.37,0.85-0.51c0.15-0.07,0.3-0.14,0.45-0.22c0.57-0.31,1.1-0.46,1.68-0.46c0.01,0,0.02,0,0.04,0    c0.18,0,0.34,0,0.5-0.01c0.72-0.02,1.28-0.03,1.87,0.55c0.04,0.04,0.09,0.1,0.14,0.16c0.23,0.27,0.57,0.68,0.94,0.48    c0.11-0.06,0.18-0.16,0.22-0.29c0.09-0.35-0.15-0.85-0.28-1.04c-0.12-0.18-0.29-0.31-0.44-0.45l-0.55-0.46    c-0.71-0.6-1.87-0.8-2.68-0.47c-0.16,0.06-0.31,0.15-0.45,0.23c-0.21,0.12-0.41,0.23-0.63,0.28c-0.12,0.03-0.25,0.04-0.39,0.05    c-0.24,0.02-0.49,0.04-0.72,0.18c-0.12,0.07-0.22,0.17-0.31,0.27c-0.3,0.31-0.61,0.64-0.74,1.03c-0.18,0.34-0.26,0.69-0.27,0.78    c-0.01,0.07-0.03,0.19-0.05,0.32c-0.02,0.12-0.04,0.23-0.05,0.3C111.82,74.49,111.92,75.59,112.22,76.6z"></path>
		<path class="st4" d="M106.16,73.41c0.07,0.02,0.12,0.08,0.18,0.15l0.02,0.02c0.37,0.39,0.86,0.65,1.4,0.73l0.03,0.01    c0.12,0.02,0.23,0.04,0.3-0.02c0.03-0.02,0.05-0.06,0.06-0.1c0.01-0.14-0.13-0.18-0.2-0.19c-0.05-0.02-0.11-0.04-0.16-0.07    c-0.1-0.05-0.2-0.11-0.3-0.18c-0.16-0.11-0.32-0.25-0.47-0.37l-0.11-0.1c-0.14-0.11-0.28-0.23-0.44-0.34    c-0.57-0.38-1.29-0.54-1.97-0.43c-0.68,0.1-1.32,0.47-1.76,1.02c-0.06,0.07-0.12,0.15-0.15,0.24c-0.01,0.03-0.04,0.22,0.07,0.29    c0.04,0.03,0.12,0.05,0.21-0.07c0.04-0.04,0.09-0.08,0.14-0.12c0.17-0.13,0.38-0.21,0.56-0.27c0.06,0.31,0.28,0.63,0.59,0.84    c0.14,0.14,0.65,0.3,0.66,0.3c0.17,0.05,0.35,0.05,0.5,0.06c0.05,0,0.11,0,0.16,0c0.25,0,0.46-0.02,0.67-0.05    c0.1-0.02,0.19-0.03,0.29-0.04c0.07-0.01,0.15-0.02,0.23-0.03l0.05-0.01c0.07-0.01,0.13-0.02,0.2-0.03l0.03,0    c0.17-0.01,0.25-0.03,0.29-0.09l0.03-0.06l-0.03-0.05c-0.01-0.01-0.04-0.07-0.08-0.1c-0.08-0.04-0.17-0.05-0.24-0.05l-0.05,0    c-0.07,0-0.14,0.01-0.2,0.01c-0.04,0.01-0.08,0.01-0.12,0.01l-0.03,0c-0.19,0.01-0.42,0.02-0.63,0.05c-0.03,0-0.06,0.01-0.09,0.01    l-0.06,0c0.23-0.22,0.41-0.58,0.34-0.84l-0.01-0.03c-0.01-0.03-0.02-0.06-0.01-0.08c0-0.01,0.01-0.02,0.02-0.03    C106.09,73.4,106.13,73.4,106.16,73.41z"></path>
		<path class="st4" d="M105.22,76.47c0.38-0.1,0.67-0.41,1.02-0.61c0.34-0.2,0.73-0.28,1.08-0.45c0.08-0.04,0.17-0.1,0.16-0.19    c-0.01-0.12-0.17-0.15-0.29-0.13c-1.29,0.13-3.02,1.32-4.03-0.05l0.06,0.07c-0.1-0.15-0.24-0.28-0.4-0.35    c-0.08-0.04-0.17-0.07-0.26-0.09c-0.06-0.01-0.13-0.05-0.18-0.02c-0.22,0.12,0.03,0.4,0.13,0.51c0.12,0.13,0.27,0.25,0.41,0.36    c0.23,0.18,0.48,0.33,0.72,0.49C104.12,76.31,104.68,76.62,105.22,76.47z"></path>
		<path class="st4" d="M106.03,76.8L106,76.81c-0.06,0.03-0.14,0.07-0.16,0.16l0,0.02l0.02,0.07l0.04,0.02    c0.03,0.02,0.08,0.03,0.14,0.03c0.12,0,0.26-0.03,0.26-0.03c0.13-0.03,0.26-0.08,0.38-0.14c0.21-0.11,0.42-0.27,0.65-0.49    c0.06-0.06,0.12-0.12,0.18-0.18c0.12-0.12,0.24-0.24,0.37-0.35c0.12-0.1,0.24-0.18,0.35-0.25c0.03-0.02,0.05-0.03,0.08-0.05    c0.1-0.06,0.21-0.12,0.29-0.22c0.06-0.08,0.08-0.21,0.01-0.3c-0.07-0.09-0.2-0.11-0.35-0.05c-0.3,0.12-0.51,0.35-0.72,0.57    c-0.05,0.05-0.1,0.11-0.15,0.16C107,76.19,106.5,76.51,106.03,76.8z"></path>
		<path class="st4" d="M118.17,74c0.13-0.03,0.23-0.1,0.3-0.2c0.03-0.02,0.06-0.05,0.07-0.08c0.02-0.04,0.02-0.09,0-0.15l-0.04-0.06    c-0.97-0.72-1.79-1.1-2.66-1.22c-1.02-0.14-2.15,0.41-2.69,1.31c-0.1,0.16-0.08,0.32,0.03,0.4l0.07,0.05l0.06-0.07    c0.19-0.22,0.42-0.4,0.68-0.52c-0.02,0.33,0.19,0.65,0.43,0.81c0.24,0.16,0.55,0.24,0.93,0.24c0.04,0,0.08,0,0.12,0    c0.19-0.01,0.48-0.04,0.71-0.19c0.28-0.18,0.39-0.52,0.32-0.93l-0.01-0.06c-0.01-0.06-0.02-0.12-0.02-0.17    c0-0.04,0.02-0.06,0.03-0.07c0.08-0.03,0.29,0.07,0.42,0.18c0.09,0.08,0.17,0.16,0.25,0.26c0.11,0.13,0.23,0.26,0.38,0.36    C117.74,74,117.98,74.05,118.17,74z"></path>
		<path class="st4" d="M117.77,75.03c-0.3-0.14-0.61,0.1-0.91,0.25c-0.46,0.23-1.01,0.24-1.52,0.12c-0.5-0.13-0.72-0.2-1.16-0.47    c-0.19-0.12-0.42-0.19-0.65-0.2c-0.06,0-0.12,0-0.16,0.04c-0.08,0.06-0.07,0.2,0,0.28c0.07,0.08,0.17,0.11,0.27,0.15    c0.36,0.13,0.71,0.28,1.05,0.47c0.5,0.28,1.04,0.63,1.58,0.47c0.17-0.05,0.32-0.15,0.47-0.24c0.33-0.21,0.66-0.43,0.99-0.64    c0.06-0.04,0.13-0.1,0.1-0.17C117.82,75.06,117.8,75.04,117.77,75.03z"></path>
		<path class="st4" d="M118.99,75.13c-0.04-0.02-0.07-0.05-0.11-0.07c-0.05-0.04-0.09-0.06-0.17-0.05c-0.02,0-0.06,0.01-0.08,0.04    c-0.05,0.06-0.03,0.15,0.07,0.27c0.06,0.07,0.13,0.12,0.21,0.17c0.11,0.06,0.24,0.09,0.36,0.13c0.04,0.01,0.09,0.02,0.13,0.04    c0.29,0.09,0.56,0.23,0.79,0.42l0.04,0.03c0.11,0.09,0.23,0.19,0.38,0.21c0.01,0,0.02,0,0.03,0c0.08,0,0.16-0.04,0.18-0.12    c0.01-0.05-0.02-0.1-0.05-0.14c-0.02-0.03-0.05-0.06-0.07-0.09c-0.26-0.28-0.64-0.42-0.95-0.52l-0.06-0.02    c-0.15-0.05-0.31-0.11-0.46-0.17C119.14,75.21,119.06,75.17,118.99,75.13z"></path>
		<path class="st4" d="M120,77.95l-0.02-0.03c-0.01-0.02-0.02-0.05-0.03-0.08l-0.01-0.03c-0.03-0.1-0.06-0.2-0.1-0.3    c-0.07-0.2-0.15-0.4-0.24-0.59l0-0.01c-0.02-0.04-0.04-0.08-0.06-0.12c-0.02-0.03-0.03-0.07-0.05-0.1    c-0.12-0.21-0.24-0.37-0.38-0.5c-0.08-0.07-0.16-0.13-0.24-0.18c-0.04-0.02-0.09-0.04-0.14-0.06c-0.06-0.02-0.12-0.02-0.18-0.02    c-0.02,0-0.04,0-0.07,0.02c-0.02,0.01-0.02,0.03-0.03,0.05c0,0.06,0.06,0.15,0.17,0.27c0.01,0.01,0.02,0.03,0.03,0.03l0.24,0.3    c0.25,0.32,0.53,0.68,0.61,1.1c0.01,0.04,0.01,0.08,0.02,0.12c0.02,0.11,0.03,0.22,0.08,0.32c0.07,0.14,0.22,0.24,0.38,0.24    c0.01,0,0.01,0,0.02,0c0.02,0,0.06-0.01,0.09-0.03c0.02-0.02,0.02-0.04,0.03-0.06c0.02-0.08,0-0.17-0.06-0.27    C120.05,78.01,120.03,77.98,120,77.95z"></path>
		<path class="st4" d="M98.69,67.5L98.69,67.5c0,0,0.01,0,0.01,0c0.08,0,0.14-0.06,0.15-0.14c0.05-0.53,0.4-0.96,0.75-1.38    c0.38-0.46,0.77-0.84,1.17-1.15c0.44-0.34,0.92-0.56,1.43-0.66c0.54-0.12,1.15-0.16,1.64-0.19c0.52-0.02,2.38-0.01,2.9,0.11    c0.19,0.05,0.39,0.11,0.59,0.17c0.35,0.11,0.7,0.22,1.08,0.27c0.53,0.07,1.11,0.08,1.76,0.01c0.09-0.01,0.19-0.02,0.28-0.03    c0.47-0.05,0.92-0.11,1.32,0.09c0.06,0.03,0.14,0.01,0.17-0.05c0.02-0.03,0.02-0.07,0.02-0.1c-0.01-0.04-0.03-0.07-0.06-0.08    c-0.23-0.14-0.52-0.22-0.89-0.24c-0.21-0.01-0.42,0-0.62,0.01c-0.08,0-0.16,0.01-0.24,0.01c-0.5,0.02-1.09,0.02-1.65-0.09    c-0.33-0.06-0.64-0.17-0.97-0.28c-0.2-0.07-0.41-0.15-0.63-0.21c-0.6-0.17-2.54-0.2-3.07-0.18c-0.55,0.03-1.15,0.07-1.75,0.22    c-0.57,0.14-1.13,0.42-1.62,0.82c-0.5,0.41-0.9,0.91-1.19,1.3c-0.16,0.21-0.34,0.47-0.47,0.75c-0.16,0.32-0.23,0.62-0.22,0.9    C98.55,67.43,98.61,67.49,98.69,67.5z"></path>
		<path class="st4" d="M124.12,99.41l-0.02,0c-0.88-0.17-1.72-0.66-2.51-1.14c-0.79-0.51-1.56-1.06-2.31-1.63    c-1.49-1.16-2.93-2.39-4.3-3.67c0.03-0.23,0.09-0.45,0.18-0.66c0.16-0.38,0.41-0.7,0.7-1.06c0.25-0.31,0.5-0.61,0.75-0.91    c0.98-1.18,1.99-2.4,2.73-3.77c1.45-2.68,1.8-5.8,2.14-8.81c0.08-0.76,0.17-1.54,0.28-2.3c0.16-1.16,0.48-2.48,0.83-3.88    c0.41-1.68,0.84-3.42,0.96-4.87c0.07-0.91,0.1-1.78,0.07-2.59c-0.07-1.83-0.15-2.56-0.9-4.16c-0.02-0.04-1.85-3.9-4.77-4.44    c-0.64-0.12-1.15-0.33-1.55-0.65c-3.25-2.54-10.06-2.58-12.35-2.16c-4.54,0.82-6.64,2.48-8.73,5.07    c-0.91,1.13-1.19,1.83-1.73,3.22c-0.1,0.24-0.2,0.51-0.32,0.81c-0.64,1.59-1.21,3.98-0.9,5.91c0.26,1.59,1.01,3.51,1.89,4.84    c-1.17,0.57-1.71,2.54-1.38,3.86c0.34,1.34,0.65,2.15,1.61,3.4c0.31,0.41,0.76,0.79,1.06,1.04c0.06,0.05,0.11,0.1,0.15,0.13    c0.55,0.48,0.74,0.47,1.2,0.36c0.13-0.03,0.3-0.07,0.51-0.1c0.79,1.57,1.1,4.19,0.62,6.06c-0.1,0.03-0.18,0.1-0.15,0.08    l-0.01,0.01l-0.02,0.02l-0.05,0.04l-0.09,0.08l-0.18,0.16l-0.35,0.32c-0.23,0.22-0.46,0.44-0.68,0.68    c-0.44,0.46-0.85,0.96-1.22,1.5c-0.04,0.06-0.08,0.12-0.12,0.19c-0.27,0.36-0.56,0.72-0.85,1.07c-0.48,0.56-0.99,1.09-1.55,1.57    c-0.56,0.47-1.14,0.93-1.79,1.26c-0.64,0.34-1.34,0.58-2.06,0.65l-0.01,0c-0.09,0.01-0.16,0.09-0.16,0.18    c0,0.1,0.08,0.17,0.18,0.17c0.79-0.02,1.55-0.24,2.26-0.56c0.71-0.31,1.35-0.76,1.97-1.22c0.45-0.34,0.87-0.72,1.28-1.11    c-0.03,0.61,0.1,1.15,0.21,1.68c0.3,1.25,0.76,2.43,1.3,3.58c0.56,1.14,1.19,2.26,2.11,3.22c0.12,0.12,0.24,0.23,0.38,0.35    c0.21,0.17,0.48,0.23,0.72,0.21l0.94-0.07l1.86-0.14l1.86-0.14l0.93-0.07c0.18-0.01,0.25-0.02,0.34,0    c0.09,0.02,0.16,0.05,0.27,0.14c0.44,0.35,0.88,0.8,1.3,1.24c0.43,0.44,0.84,0.9,1.26,1.36c0.41,0.46,0.82,0.92,1.22,1.39    l0.59,0.71l0.29,0.36l0.13,0.18c0.01,0.01,0.02,0.02,0.03,0.03c0.01,0.02,0.01,0.04,0.02,0.06c0.07,0.13,0.16,0.22,0.22,0.27    c0.19-0.23,0.38-0.46,0.56-0.69c0.01,0.02,0.01,0.04,0.01,0.05l0-0.06c0.96-1.17,1.89-2.34,2.77-3.52l0.78-1.04    c0.25-0.33,0.5-0.66,0.79-0.91c0.57-0.53,1.41-0.55,2.23-0.61c0.41-0.03,0.83-0.03,1.24-0.04l0.63-0.01c0.11,0,0.2,0,0.34-0.01    c0.03-0.01,0,0.01,0.13-0.03c0.04-0.02,0.08-0.04,0.13-0.11c0.04-0.06,0.06-0.14,0.05-0.17c0-0.04,0-0.08-0.01-0.11l-0.02-0.05    c-0.01-0.04-0.02-0.06-0.03-0.07c-0.04-0.08-0.08-0.12-0.11-0.17c-0.57-0.68-1.12-1.25-1.62-1.91c-0.24-0.32-0.47-0.65-0.67-1    c-0.04-0.07-0.07-0.14-0.11-0.2c0.47,0.35,0.94,0.69,1.41,1.03c0.79,0.55,1.59,1.07,2.43,1.55c0.84,0.46,1.71,0.92,2.72,1.07    c0.09,0.01,0.18-0.05,0.2-0.14C124.27,99.52,124.21,99.43,124.12,99.41z M97.66,80.45c-0.14-0.05-0.36,0.04-0.69,0.18    c-0.14,0.06-0.3,0.13-0.37,0.14c-0.24,0.02-0.36-0.04-0.54-0.18c-2.29-1.8-3.06-4.72-2.46-6.4c0.24-0.67,0.68-1.04,1.26-1.05    c0.1,0.16,0.26,0.36,0.43,0.58c0.22,0.27,0.44,0.56,0.5,0.7c0.07,0.17,0.24,0.3,0.47,0.35c0.28,0.06,0.57,0,0.76-0.16    c0.16-0.14,0.22-0.36,0.27-0.54c0.26-1.12,0.07-1.98-0.12-2.82c-0.17-0.76-0.34-1.54-0.19-2.53c0.1-0.56,0.18-1.12,0.26-1.67    c0.37-2.55,0.73-4.96,3.05-6.59c0.94-0.66,2.89-0.45,4.45-0.28c0.56,0.06,1.09,0.12,1.51,0.13c3.7,0.09,5.67-0.41,7.12-0.78    c1.18-0.3,1.95-0.5,2.97-0.15c2.55,0.87,2.98,2.01,3.92,4.5l0.06,0.15c0.61,1.61,0.57,4.22,0.55,6.32    c-0.01,0.55-0.01,1.08-0.01,1.53c0,0.31,0.15,0.77,0.3,1.25c0.15,0.49,0.31,0.99,0.3,1.28c-0.22,6.86-2.02,11.93-5.67,15.95    c-0.77,0.85-1.19,1.42-1.66,2.53c-0.15,0.37-0.39,1.46-0.62,2.52c-0.18,0.83-0.35,1.62-0.45,1.92c-0.09,0.28-0.8,0.62-1.96,0.75    c-1.17,0.13-6.97,0.41-11.61-6c-0.11-0.16-0.22-0.33-0.33-0.48c-0.16-0.33-0.29-0.67-0.4-1.02c-0.13-0.45-0.21-0.91-0.24-1.38    c0-0.23-0.01-0.47,0.01-0.7l0.01-0.17l0.01-0.13c0-0.02,0-0.04,0-0.05c0.06-0.11,0.12-0.23,0.18-0.34    c0.23-0.43,0.45-0.84,0.55-1.2c0.75,1.92,1.16,2.78,3.06,3.96c1.76,0.81,3.39,2.08,4.85,3.79c0.17,0.2,0.19,0.22,0.27,0.19    l0.07-0.04l-0.01-0.08l-0.01-0.03c-0.88-1.62-2.22-2.52-3.63-3.47c-1.11-0.74-2.25-1.51-3.16-2.66c-0.98-1.24-1.29-2.69-1.62-4.21    c-0.2-0.92-0.4-1.88-0.77-2.8C98.2,80.94,98.01,80.57,97.66,80.45z M109.6,104.75c-0.39-0.48-0.79-0.96-1.2-1.44    c-0.41-0.47-0.82-0.94-1.24-1.41c-0.43-0.46-0.84-0.92-1.37-1.35c-0.13-0.11-0.34-0.24-0.55-0.28c-0.21-0.06-0.46-0.03-0.59-0.02    l-0.93,0.06l-1.86,0.12l-1.86,0.12l-0.92,0.06c-0.07,0-0.12-0.01-0.15-0.04c-0.09-0.08-0.2-0.18-0.3-0.28    c-0.8-0.83-1.41-1.91-1.93-3c-0.51-1.1-0.95-2.25-1.22-3.41c-0.13-0.57-0.24-1.19-0.16-1.67c0.08-0.5,0.36-1.03,0.68-1.51    c0.33-0.49,0.71-0.95,1.13-1.38c0.15-0.16,0.32-0.32,0.48-0.48c0,0.02,0.01,0.03,0.01,0.05c0,0.12,0.01,0.24,0.01,0.37    c0.04,0.54,0.13,1.07,0.28,1.58c0.31,1.02,0.85,1.96,1.5,2.77c1.32,1.63,3.02,2.84,4.82,3.81c0.45,0.24,0.93,0.44,1.39,0.65    c0.44,0.18,0.86,0.41,1.25,0.69c0.78,0.55,1.45,1.26,1.97,2.07c0.85,1.32,1.27,2.87,1.41,4.45c-0.01,0.04-0.02,0.07-0.03,0.11    c-0.01,0.04-0.02,0.08-0.02,0.12l-0.02-0.02L109.6,104.75z M110.6,104.31c-0.15-1.33-0.53-2.64-1.23-3.81    c-0.42-0.71-0.97-1.35-1.59-1.89c0.85,0.15,1.68,0.23,2.41,0.23c1.15,0,2.03-0.18,2.29-0.46c1.31-0.15,1.62-2.05,1.62-2.07    c0.01-0.43,0.16-0.86,0.31-1.28c0.01-0.02,0.01-0.04,0.02-0.06c0.04,0.2,0.08,0.4,0.11,0.6c0.1,0.56,0.16,1.13,0.17,1.68    c0,0.27-0.01,0.55-0.08,0.78c-0.03,0.12-0.07,0.2-0.14,0.3l-0.25,0.34l-1.01,1.39c-0.67,0.93-1.34,1.88-1.92,2.89    C111.06,103.38,110.82,103.83,110.6,104.31z M117.72,97.75c0.48,0.58,1.03,1.11,1.51,1.63l-0.46,0.03l-1.26,0.09    c-0.42,0.04-0.84,0.08-1.27,0.17c-0.44,0.08-0.88,0.29-1.21,0.59c-0.34,0.29-0.6,0.64-0.86,0.96l-0.74,0.94    c-0.83,1.04-1.59,2.08-2.33,3.13c0.04-0.17,0.09-0.34,0.15-0.51c0.18-0.51,0.41-1.03,0.67-1.52c0.53-0.99,1.14-1.95,1.79-2.89    l1-1.4l0.25-0.36c0.1-0.14,0.18-0.32,0.21-0.48c0.08-0.32,0.09-0.63,0.08-0.93c-0.01-0.6-0.11-1.17-0.14-1.74    c-0.02-0.29-0.03-0.57-0.03-0.84c0-0.06,0-0.12,0-0.17c0.17,0.1,0.33,0.21,0.47,0.33c0.28,0.23,0.52,0.52,0.73,0.85    c0.22,0.33,0.41,0.68,0.65,1.06C117.18,97.08,117.44,97.42,117.72,97.75z"></path>
	</g>
	<g>
		<g>
			<path class="st5" d="M51.68,119.92c-5.05,0-9.91,2.17-13.68,6.12c-3.23,3.37-4.82,7.18-4.73,9.2c0.11,2.36,1.93,3.65,5.02,3.57     c0.35-0.04,0.65-0.24,0.81-0.54c0.15-0.28,0.16-0.6-0.01-0.92c-0.74-1.17-0.56-3.46,0.48-5.97c1.33-3.25,4.32-6.25,6.59-7.53     c0.24-0.13,0.52-0.13,0.75,0.01c0.23,0.14,0.37,0.38,0.37,0.68c0,2.16-5.72,15.1-10.23,23.77c-0.76,1.47-1.03,2.93-1.22,4     c-0.08,0.43-0.14,0.81-0.2,0.97c-0.1,0.2-0.09,0.43,0.03,0.63c0.14,0.22,0.39,0.36,0.67,0.36c2.29,0,3.64,0.29,4.95,0.57     c1.32,0.29,2.69,0.58,4.97,0.58c1.43,0,5.04-0.69,6.77-1.4c7.18-2.93,10.67-9.68,10.67-20.62     C63.69,123.51,56.51,119.92,51.68,119.92z M46.37,150.78c-0.62,0.03-1.27,0.01-1.95-0.05c-0.37-0.04-0.7-0.24-0.89-0.56     c-0.19-0.32-0.22-0.7-0.07-1.04c2.47-5.9,8.22-19.99,8.22-23.26c0-0.61-0.07-1.18-0.19-1.69c-0.08-0.32,0.01-0.63,0.24-0.86     c0.19-0.19,0.44-0.29,0.7-0.29c0.09,0,0.18,0.01,0.26,0.03c2.76,0.73,6.04,2.91,6.04,9.13     C58.73,137.11,58.73,150.16,46.37,150.78z"></path>
			<path class="st5" d="M66.98,140.66c0.15-0.04,0.26-0.11,0.32-0.22c0.77-1.38,2.48-5.51,3.04-7.15c0.79,0.08,1.19-0.03,1.4-0.17     c0.11,0.02,0.12,0.09,0.13,0.12c0.06,0.36-0.18,1.67-1.46,4.28c-0.5,1.01-1.56,3.53-0.55,5.13c0.52,0.83,1.5,1.25,2.91,1.25     c0.04,0,0.07,0,0.11,0c3.29-0.05,5.63-3.64,7.1-6.33c0.09-0.16,0.1-0.33,0.05-0.5c-0.06-0.17-0.19-0.31-0.36-0.39     c-0.3-0.13-0.65-0.04-0.84,0.23c-1.25,1.8-3.24,3.63-4.87,3.65c-0.24,0-0.3-0.08-0.32-0.11c-0.35-0.51,0.48-2.53,1.09-4.01     c0.64-1.56,1.25-3.03,1.23-4l0-0.07c-0.02-0.72-0.33-1.32-0.84-1.64c-0.52-0.33-1.19-0.34-1.88-0.04     c-0.59,0.26-1.61,0.57-3.19,0.59c-0.36-0.01-0.46-0.13-0.49-0.18c-0.24-0.38,0-1.39,0.64-2.71c0.18-0.38,0.19-0.81,0-1.2     c-0.19-0.4-0.55-0.68-0.99-0.78c-0.33-0.08-0.67-0.11-1-0.09c-0.72,0.03-1.45,0.52-1.92,1.27c-0.65,1.05-0.68,2.45-0.07,3.81     c0.29,0.65,0.78,1.11,1.53,1.42c-0.37,1.64-1.92,5.62-2.59,6.87c-0.16,0.29-0.06,0.65,0.22,0.83     C65.66,140.7,66.66,140.74,66.98,140.66z"></path>
			<path class="st5" d="M172.62,151.27c-0.25-0.02-0.5,0.09-0.64,0.3c-2.3,3.42-11.71,0.41-15.73-0.88     c-0.25-0.08-0.49-0.16-0.7-0.22c2.71-7.65,4.68-12.94,5.85-15.71c0.1-0.24,0.08-0.52-0.07-0.75c-0.16-0.24-0.43-0.39-0.72-0.39     h-1.41c-1.12,0-2.08,0.79-2.31,1.93c-0.02,0.08-0.04,0.17-0.06,0.24c-0.1,0.29-0.41,1.07-0.81,2.04     c-0.38,0.94-0.84,2.08-1.28,3.2c-1.3,2.96-2.71,4.73-3.77,4.73c-0.51,0-0.73-0.14-0.73-1.04c0-0.64,1.16-3.44,2.18-5.9     c0.59-1.43,1.21-2.91,1.64-4.08c0.16-0.42,0.38-1.17,0.13-1.53c-0.1-0.14-0.25-0.22-0.39-0.22c0,0,0,0,0,0l-1.26-0.1     c-0.32,0-0.59-0.06-0.82-0.12c-0.5-0.12-1.13-0.28-1.41,0.79c-0.01,0.04-0.21,0.57-0.41,1.1c-0.41,1.12-0.41,1.12-0.42,1.14     c-0.09,0.31-0.45,1.19-0.87,2.2c-0.46,1.11-0.9,2.18-1.29,3.18c-1.49,2.27-3.66,4.65-5.33,4.65c-0.2,0-0.24-0.06-0.26-0.09     c-0.36-0.55,0.69-2.89,1.45-4.59c0.83-1.87,1.62-3.63,1.62-4.73l0-0.08c-0.01-0.77-0.39-1.45-1.04-1.86     c-0.67-0.43-1.51-0.49-2.25-0.16c-0.61,0.27-1.69,0.6-3.32,0.6c-0.32,0-0.42-0.1-0.48-0.18c-0.09-0.14-0.32-0.73,0.49-2.59     c0.27-0.63,0.21-1.35-0.17-1.92c-0.37-0.55-0.96-0.88-1.68-0.86c-0.71,0.02-1.47,0.51-1.97,1.27c-0.77,1.17-0.84,2.75-0.21,4.34     c0.29,0.73,0.8,1.25,1.59,1.6c-0.28,1.48-0.84,3.03-1.64,4.52c-1.35,2.07-3.41,4.28-5.14,4.28c-0.22,0-0.27-0.07-0.28-0.1     c-0.34-0.53,0.62-2.71,1.33-4.3c0.79-1.78,1.53-3.46,1.53-4.56l0-0.08c-0.01-0.98-0.42-1.44-0.77-1.66     c-0.51-0.33-1.22-0.32-2,0.03c-0.51,0.23-1.78,0.22-3,0.21c-0.28,0-0.56,0-0.84,0c-0.32,0-0.42-0.1-0.48-0.18     c-0.09-0.14-0.32-0.73,0.49-2.6c0.27-0.63,0.21-1.35-0.17-1.92c-0.37-0.55-0.99-0.87-1.68-0.86c-0.71,0.02-1.47,0.51-1.97,1.27     c-0.77,1.17-0.84,2.75-0.21,4.34c0.29,0.73,0.8,1.25,1.59,1.6c-0.28,1.48-1.07,2.89-1.95,4.57c-0.9,1.39-2.96,4.96-4.71,4.96     c-0.05,0-0.05-0.01-0.06-0.02c-0.1-0.14-0.17-0.76,0.27-2.08l3.36-9.3c0.1-0.24,0.08-0.5-0.06-0.71     c-0.16-0.24-0.43-0.38-0.72-0.38l-1.37-0.02c-0.01,0-0.02,0-0.03,0c-1.11,0-2.09,0.8-2.33,1.9c-0.01,0.04-0.02,0.09-0.03,0.13     c-0.6-1.46-1.99-2.1-2.82-2.1c-4.17,0-7.33,3.71-8.45,9.92c-0.46,2.57,0.25,4.08,0.94,4.9c0.82,0.98,2.06,1.53,3.49,1.53     c1.34,0,2.85-1.6,3.68-2.63c0.42,1.31,1.75,1.95,2.98,1.81c4.53-0.54,7.78-7.22,7.78-7.22c0.87-1.56,1.63-3.27,2.15-4.88     c1.26,0.17,1.9,0,1.93-0.01c0.19-0.02,0.2,0.09,0.21,0.15c0.03,0.19-0.15,0.62-0.39,1.23c-0.27,0.68-0.64,1.61-1.06,2.97     c-0.09,0.3-0.21,0.64-0.34,1c-0.56,1.61-1.26,3.61-0.86,5.03c0.28,1,1.27,1.58,2.92,1.72c0.11,0.01,0.23,0.02,0.34,0.01     c4.94-0.4,8.35-7.23,8.35-7.23c0.87-1.55,1.63-3.27,2.15-4.88c1.26,0.17,1.9,0,1.93-0.01c0.19-0.02,0.2,0.09,0.21,0.15     c0.09,0.61-0.18,1.89-1.26,4.14c-0.12,0.26-1.05,2.31-1.15,2.54c-0.81,1.9-0.84,3.13-0.17,4.07c0.57,0.8,1.54,1.2,2.88,1.2     c2.21,0,4.18-1.63,5.65-3.36c0,0.03,0,0.06,0,0.08c0,2.13,1.57,3.24,3.12,3.24c1.38,0,2.75-1,3.72-1.93     c-0.43,1.24-0.8,2.11-0.98,2.51c-1.87-0.22-4.65,0.16-6.74,1.95c-1.55,1.33-2.38,3.19-2.38,5.38c0,1.34,0.77,3.88,3.68,3.88     c2.23,0,3.85-1.06,5.88-2.88c1.23-1.1,1.77-2.9,2.16-4.21c0.08-0.28,0.16-0.54,0.24-0.77c4.87,1.93,12.08,4.75,15.92,3.51     c1.03-0.32,1.97-1.18,2.46-2.25c0.4-0.88,0.44-1.79,0.11-2.56C173.08,151.44,172.87,151.29,172.62,151.27z M113,140.67l-0.1,0.27     c-0.78,2.13-1.96,5.34-3.86,5.34c-0.49,0-1.52,0-1.52-2.75c0-4.34,2.76-7.03,5.31-7.03c0.34,0,0.47,0.13,0.54,0.22     C113.64,137.08,113.79,138.06,113,140.67z M146.33,158.86c-0.67,0-1-0.74-1-2.19c0-1.16,0.84-2.64,2.04-3.6     c0.91-0.73,1.95-1.1,3-1.1c0.19,0,0.37,0.01,0.56,0.04C149.77,154.98,147.7,158.86,146.33,158.86z"></path>
			<path class="st5" d="M160.77,129.79c-0.17,0.16-0.34,0.33-0.34,0.57c0,0.35,0.29,0.7,0.94,0.7c1.02,0,2.96-1.62,2.96-4.15     c0-1.4-0.83-2.13-1.65-2.13c-0.35,0-2.09,0.15-2.09,3.04c0,0.33,0.05,1.09,0.46,1.66C160.99,129.58,160.85,129.7,160.77,129.79z"></path>
			<path class="st5" d="M177.83,136.17c-0.99,0-2.01,0.16-3.04,0.47c-1.5,0.46-3.05,1.25-4.85,2.47c-0.9-1.99-1.8-4.05-1.8-6.56     v-0.32l-0.31-0.06c-0.65-0.13-1.81,0.19-2.57,0.71c-0.47,0.33-0.76,0.71-0.82,1.11c-0.53,3.53-1.43,5.32-2.45,7.13l-0.12,0.21     l0.26,0.4l0.84,0.46l0.19-0.31c0.64-1.01,1.43-2.62,1.97-4.17c0.38,1.12,0.98,2.28,1.53,3.34l0.21,0.41     c-0.93,0.84-1.77,1.72-2.37,2.47c-0.9,0.9-1.74,3.19-1.06,4.85c0.34,0.82,1.18,1.8,3.27,1.8c4.73,0,4.87-5.65,4.87-6.3     c0-1.08-0.34-2.14-0.74-3.13c2.26-1.33,4.11-1.88,6.3-1.88c0.92,0,1.51,0.64,1.75,1.24c0.28,0.7,0.17,1.43-0.28,1.87     c0,0-0.56,0.38-0.11,0.59c0.08,0.04,0.2,0.04,0.34,0.07c0.36,0.02,1.85,0.2,2.98-0.81c0.6-0.53,0.9-1.28,0.9-2.23     C182.73,137.35,180.27,136.17,177.83,136.17z M167.74,146.72c-0.24,0.88-0.72,1.45-1.29,1.53c-0.36,0.05-0.7-0.11-0.89-0.43     c-0.35-0.58-0.17-1.48,0.48-2.4c0.55-0.75,1.13-1.4,1.74-1.97C168.07,144.49,168.06,145.47,167.74,146.72z"></path>
			<path class="st5" d="M121.08,151.61c-0.21,0.04-0.38,0.18-0.45,0.39c-1.31,3.88-16,3.42-16,3.42s-9.86-0.43-12.27-2.91     c3.84-0.54,5.43-1.54,6.92-3.16c1.84-2.01,3.04-4.66,3.13-6.93c0.09-2.49-1.74-3.94-2.92-4.61c2.05-0.67,6.65-2.7,8.23-7.72     c1.43-4.57-0.53-7.01-1.83-8.06c-1.48-1.19-3.08-2.29-6.42-2.53c-5.77-0.43-10.63,1.1-14.06,4.43c-3.53,3.42-4.7,7.9-4.6,9.91     c0.1,2.05,1.72,3.18,4.43,3.1c0.31,0,0.6-0.17,0.75-0.44c0.15-0.26,0.16-0.56,0.01-0.82c-0.27-0.45-0.42-1.05-0.42-1.74     c0-6.39,5.95-9.98,7.76-10.4c0.02,0.17,0.02,0.46,0,0.99c-0.09,2.28-4.01,11.55-7.17,18.61l-0.01,0     c-0.07,0.14-0.19,0.35-0.29,0.53l-0.33,0.57c-0.22,0.38-0.45,0.75-0.7,1.12c-0.47,0.7-0.97,1.38-1.49,2.03     c-0.24-0.13-0.48-0.26-0.73-0.39c-0.91-0.48-1.85-0.88-2.84-1.19c-1.98-0.62-4.14-0.84-6.28-0.46c-1.07,0.19-2.12,0.54-3.11,1.07     c-0.99,0.53-1.91,1.23-2.68,2.18c-0.38,0.48-0.72,1.03-0.96,1.66c-0.24,0.64-0.39,1.38-0.29,2.18c0.08,0.79,0.44,1.61,0.95,2.2     c0.51,0.61,1.13,1.01,1.73,1.29c1.2,0.56,2.35,0.72,3.44,0.77c0.55,0.03,1.08,0.02,1.61-0.01c0.26-0.02,0.52-0.03,0.78-0.06     c0.25-0.02,0.52-0.06,0.8-0.1c2.18-0.32,4.25-1.2,6-2.41c1.18-0.81,1.65-1.3,2.59-2.32c10.54,9.04,29.91,8.16,34.98,5.87     c1.53-0.69,2.68-2.12,2.9-3.3c0.18-0.96-0.03-1.87-0.58-2.54C121.52,151.65,121.3,151.57,121.08,151.61z M79.6,150.94     c-1.36,0.93-2.85,1.59-4.41,1.86c-0.37,0.07-0.83,0.12-1.24,0.16c-0.42,0.04-0.83,0.05-1.23,0.04c-0.79-0.01-1.55-0.12-2.08-0.34     c-0.26-0.11-0.46-0.23-0.56-0.35c-0.11-0.11-0.17-0.19-0.2-0.34c-0.04-0.14-0.03-0.36,0.04-0.61c0.08-0.26,0.22-0.54,0.4-0.81     c0.38-0.55,0.95-1.07,1.61-1.47c0.66-0.41,1.4-0.72,2.18-0.91c1.57-0.4,3.29-0.31,4.93,0.15c0.82,0.24,1.63,0.55,2.4,0.95     c0.04,0.02,0.08,0.04,0.12,0.06C80.94,149.92,80.28,150.47,79.6,150.94z M94.29,133.53c1.37-3.13,2.91-6.67,2.91-8.25     c0-0.36-0.03-0.7-0.1-1.02c-0.07-0.35,0.03-0.71,0.27-0.97c0.22-0.24,0.53-0.37,0.86-0.37c0.05,0,0.1,0,0.16,0.01     c2.99,0.41,4.51,2.01,4.51,4.77c0,2.24-0.71,4.05-2.1,5.38c-2.35,2.25-6.06,2.59-7.46,2.63     C93.63,135.05,93.95,134.31,94.29,133.53z M89.67,147.38c0-2.89,2.93-7.87,5.92-7.87c0.55,0,1.08,0.24,1.5,0.68     c0.5,0.53,0.77,1.26,0.74,1.97l0,0.01c-0.15,4.45-4.1,7.28-6.76,7.28C90.42,149.45,89.67,149.22,89.67,147.38z"></path>
		</g>
		<g>
			<path class="st5" d="M54.49,167.74c0-0.07,0.06-0.14,0.14-0.14h3.05c0.08,0,0.14,0.07,0.14,0.14v0.8c0,0.07-0.06,0.14-0.14,0.14     h-2.04v0.91h1.68c0.07,0,0.14,0.07,0.14,0.14v0.8c0,0.08-0.07,0.14-0.14,0.14h-1.68v0.99h2.04c0.08,0,0.14,0.07,0.14,0.14v0.8     c0,0.07-0.06,0.14-0.14,0.14h-3.05c-0.08,0-0.14-0.07-0.14-0.14V167.74z"></path>
			<path class="st5" d="M63.15,167.52c0.74,0,1.28,0.23,1.78,0.68c0.07,0.06,0.07,0.15,0.01,0.21l-0.57,0.6     c-0.05,0.05-0.13,0.05-0.18,0c-0.27-0.24-0.63-0.38-0.99-0.38c-0.83,0-1.44,0.69-1.44,1.52c0,0.82,0.62,1.49,1.45,1.49     c0.35,0,0.72-0.13,0.99-0.35c0.05-0.04,0.15-0.04,0.19,0.01l0.57,0.61c0.05,0.05,0.04,0.15-0.01,0.2     c-0.5,0.49-1.13,0.71-1.79,0.71c-1.47,0-2.66-1.17-2.66-2.64C60.49,168.71,61.68,167.52,63.15,167.52z"></path>
			<path class="st5" d="M67.88,167.74c0-0.07,0.06-0.14,0.14-0.14h0.88c0.07,0,0.14,0.07,0.14,0.14v3.93h1.75     c0.08,0,0.14,0.07,0.14,0.14v0.8c0,0.07-0.06,0.14-0.14,0.14h-2.77c-0.08,0-0.14-0.07-0.14-0.14V167.74z"></path>
			<path class="st5" d="M73.71,167.74c0-0.07,0.06-0.14,0.14-0.14h3.05c0.08,0,0.14,0.07,0.14,0.14v0.8c0,0.07-0.06,0.14-0.14,0.14     h-2.04v0.91h1.68c0.07,0,0.14,0.07,0.14,0.14v0.8c0,0.08-0.07,0.14-0.14,0.14h-1.68v0.99h2.04c0.08,0,0.14,0.07,0.14,0.14v0.8     c0,0.07-0.06,0.14-0.14,0.14h-3.05c-0.08,0-0.14-0.07-0.14-0.14V167.74z"></path>
			<path class="st5" d="M82.36,167.52c0.74,0,1.28,0.23,1.78,0.68c0.07,0.06,0.07,0.15,0.01,0.21l-0.57,0.6     c-0.05,0.05-0.13,0.05-0.18,0c-0.27-0.24-0.63-0.38-0.99-0.38c-0.83,0-1.44,0.69-1.44,1.52c0,0.82,0.62,1.49,1.45,1.49     c0.35,0,0.72-0.13,0.99-0.35c0.05-0.04,0.15-0.04,0.19,0.01l0.57,0.61c0.05,0.05,0.04,0.15-0.01,0.2     c-0.5,0.49-1.13,0.71-1.79,0.71c-1.47,0-2.66-1.17-2.66-2.64C79.71,168.71,80.89,167.52,82.36,167.52z"></path>
			<path class="st5" d="M87.76,168.68h-1.05c-0.08,0-0.14-0.07-0.14-0.14v-0.8c0-0.07,0.06-0.14,0.14-0.14h3.27     c0.08,0,0.14,0.07,0.14,0.14v0.8c0,0.07-0.06,0.14-0.14,0.14h-1.05v3.93c0,0.07-0.07,0.14-0.14,0.14H87.9     c-0.07,0-0.14-0.07-0.14-0.14V168.68z"></path>
			<path class="st5" d="M92.91,167.74c0-0.07,0.07-0.14,0.14-0.14h0.88c0.07,0,0.14,0.07,0.14,0.14v4.87c0,0.07-0.07,0.14-0.14,0.14     h-0.88c-0.07,0-0.14-0.07-0.14-0.14V167.74z"></path>
			<path class="st5" d="M99.69,167.52c0.74,0,1.28,0.23,1.78,0.68c0.07,0.06,0.07,0.15,0.01,0.21l-0.57,0.6     c-0.05,0.05-0.13,0.05-0.18,0c-0.27-0.24-0.63-0.38-0.99-0.38c-0.83,0-1.44,0.69-1.44,1.52c0,0.82,0.62,1.49,1.45,1.49     c0.35,0,0.72-0.13,0.99-0.35c0.05-0.04,0.15-0.04,0.19,0.01l0.57,0.61c0.05,0.05,0.04,0.15-0.01,0.2     c-0.5,0.49-1.13,0.71-1.79,0.71c-1.47,0-2.66-1.17-2.66-2.64C97.03,168.71,98.21,167.52,99.69,167.52z"></path>
			<path class="st5" d="M108.11,167.74c0-0.07,0.06-0.14,0.14-0.14h2.2c0.88,0,1.6,0.71,1.6,1.59c0,0.68-0.45,1.22-1.09,1.48     l1.01,1.87c0.05,0.1,0,0.21-0.13,0.21h-0.98c-0.06,0-0.1-0.04-0.12-0.07l-0.98-1.95h-0.51v1.88c0,0.07-0.07,0.14-0.14,0.14h-0.88     c-0.08,0-0.14-0.07-0.14-0.14V167.74z M110.35,169.8c0.3,0,0.56-0.28,0.56-0.59c0-0.31-0.26-0.56-0.56-0.56h-1.09v1.15H110.35z"></path>
			<path class="st5" d="M115.1,167.74c0-0.07,0.06-0.14,0.14-0.14h3.05c0.08,0,0.14,0.07,0.14,0.14v0.8c0,0.07-0.06,0.14-0.14,0.14     h-2.04v0.91h1.68c0.07,0,0.14,0.07,0.14,0.14v0.8c0,0.08-0.07,0.14-0.14,0.14h-1.68v0.99h2.04c0.08,0,0.14,0.07,0.14,0.14v0.8     c0,0.07-0.06,0.14-0.14,0.14h-3.05c-0.08,0-0.14-0.07-0.14-0.14V167.74z"></path>
			<path class="st5" d="M121.99,167.64c0.01-0.07,0.07-0.12,0.13-0.12h0.12c0.04,0,0.1,0.03,0.13,0.07l1.71,3.18h0.01l1.71-3.18     c0.02-0.04,0.09-0.07,0.12-0.07h0.12c0.06,0,0.12,0.05,0.13,0.12l0.83,4.95c0.01,0.1-0.05,0.16-0.14,0.16h-0.87     c-0.07,0-0.13-0.06-0.14-0.12l-0.33-2.28h-0.01l-1.24,2.39c-0.02,0.04-0.09,0.08-0.13,0.08h-0.13c-0.04,0-0.1-0.04-0.13-0.08     l-1.24-2.39h-0.01l-0.32,2.28c-0.01,0.06-0.07,0.12-0.14,0.12h-0.87c-0.09,0-0.15-0.07-0.14-0.16L121.99,167.64z"></path>
			<path class="st5" d="M130,167.74c0-0.07,0.06-0.14,0.14-0.14h3.05c0.08,0,0.14,0.07,0.14,0.14v0.8c0,0.07-0.06,0.14-0.14,0.14     h-2.04v0.91h1.68c0.07,0,0.14,0.07,0.14,0.14v0.8c0,0.08-0.07,0.14-0.14,0.14h-1.68v0.99h2.04c0.08,0,0.14,0.07,0.14,0.14v0.8     c0,0.07-0.06,0.14-0.14,0.14h-3.05c-0.08,0-0.14-0.07-0.14-0.14V167.74z"></path>
			<path class="st5" d="M136.38,167.74c0-0.07,0.06-0.14,0.13-0.14h1.8c1.42,0,2.58,1.16,2.58,2.57c0,1.43-1.16,2.58-2.58,2.58h-1.8     c-0.07,0-0.13-0.07-0.13-0.14V167.74z M138.23,171.66c0.83,0,1.44-0.66,1.44-1.49c0-0.83-0.6-1.49-1.44-1.49h-0.71v2.98H138.23z"></path>
			<path class="st5" d="M143.85,167.74c0-0.07,0.07-0.14,0.14-0.14h0.88c0.07,0,0.14,0.07,0.14,0.14v4.87     c0,0.07-0.07,0.14-0.14,0.14h-0.88c-0.07,0-0.14-0.07-0.14-0.14V167.74z"></path>
			<path class="st5" d="M148.34,167.74c0-0.07,0.06-0.14,0.14-0.14h3.05c0.08,0,0.14,0.07,0.14,0.14v0.8c0,0.07-0.06,0.14-0.14,0.14     h-2.04v0.91h1.68c0.07,0,0.14,0.07,0.14,0.14v0.8c0,0.08-0.07,0.14-0.14,0.14h-1.68v0.99h2.04c0.08,0,0.14,0.07,0.14,0.14v0.8     c0,0.07-0.06,0.14-0.14,0.14h-3.05c-0.08,0-0.14-0.07-0.14-0.14V167.74z"></path>
			<path class="st5" d="M154.42,172.05l0.35-0.61c0.06-0.1,0.2-0.08,0.25-0.04c0.03,0.01,0.56,0.4,1.05,0.4     c0.29,0,0.51-0.18,0.51-0.44c0-0.31-0.26-0.54-0.76-0.74c-0.63-0.25-1.43-0.74-1.43-1.63c0-0.73,0.57-1.47,1.7-1.47     c0.77,0,1.36,0.39,1.58,0.55c0.09,0.05,0.07,0.18,0.04,0.24l-0.38,0.57c-0.05,0.08-0.18,0.15-0.25,0.1     c-0.07-0.04-0.6-0.44-1.05-0.44c-0.26,0-0.46,0.18-0.46,0.38c0,0.27,0.22,0.48,0.8,0.71c0.57,0.23,1.49,0.68,1.49,1.68     c0,0.76-0.66,1.52-1.74,1.52c-0.96,0-1.49-0.4-1.66-0.57C154.38,172.18,154.36,172.15,154.42,172.05z"></path>
		</g>
		<g>
			<path class="st5" d="M163.91,168.6l-2.53,1.21c-0.09,0.04-0.09,0.17,0,0.22l2.55,1.22c0.09,0.04,0.19,0.04,0.28,0l2.54-1.22     c0.09-0.05,0.09-0.18,0-0.23l-2.53-1.21C164.12,168.56,164,168.56,163.91,168.6z"></path>
		</g>
		<g>
			<path class="st5" d="M48,168.6l-2.53,1.21c-0.09,0.04-0.09,0.17,0,0.22l2.55,1.22c0.09,0.04,0.19,0.04,0.28,0l2.54-1.22     c0.09-0.05,0.09-0.18,0-0.23l-2.53-1.21C48.21,168.56,48.1,168.56,48,168.6z"></path>
		</g>
	</g>
	<g>
		<g>
			<path class="st4" d="M108.39,111.72c-0.17,0-0.31,0-0.41,0c-1.74,0.03-17.42,0.04-26-11.38l-0.14-0.18V67.5     c0-3.1,0.63-6.08,1.87-8.87l0.05-0.1c0.17-0.37,0.34-0.73,0.52-1.1c0.19-0.38,0.4-0.76,0.61-1.14c0.22-0.39,0.46-0.79,0.7-1.16     c0.25-0.4,0.52-0.8,0.79-1.18c0.29-0.4,0.59-0.8,0.89-1.18c0.32-0.4,0.66-0.79,1-1.17c0.36-0.39,0.73-0.78,1.11-1.15     c0.4-0.38,0.81-0.76,1.23-1.11c0.44-0.37,0.89-0.72,1.35-1.06c0.48-0.35,0.98-0.68,1.48-1c0.52-0.32,1.07-0.63,1.62-0.92     c0.57-0.3,1.16-0.58,1.76-0.83c0.62-0.26,1.26-0.51,1.9-0.73c0.66-0.23,1.35-0.44,2.05-0.62c0.72-0.19,1.46-0.35,2.2-0.49     c0.77-0.14,1.56-0.26,2.36-0.35c0.5-0.06,0.97-0.1,1.41-0.13c1.08-0.07,2.36-0.02,2.91,0.03c0.5,0.04,1,0.1,1.5,0.16     c0.78,0.1,1.56,0.23,2.31,0.38c0.73,0.15,1.46,0.32,2.16,0.51c0.68,0.19,1.35,0.4,2.01,0.64c0.63,0.23,1.26,0.48,1.86,0.75     c0.58,0.26,1.16,0.54,1.72,0.84c0.54,0.29,1.08,0.61,1.58,0.93c0.49,0.31,0.98,0.65,1.45,1c0.45,0.33,0.89,0.69,1.33,1.06     c0.41,0.35,0.81,0.72,1.2,1.11c0.37,0.36,0.74,0.75,1.09,1.14c0.33,0.37,0.66,0.77,0.98,1.16c0.3,0.38,0.6,0.78,0.87,1.17     c0.27,0.38,0.53,0.78,0.77,1.17c0.23,0.38,0.46,0.76,0.68,1.15c0.21,0.37,0.4,0.75,0.59,1.13c0.18,0.36,0.35,0.72,0.51,1.08l0,0     c1.24,2.79,1.87,5.77,1.87,8.87v32.66l-0.13,0.18C125.9,111.13,111.43,111.72,108.39,111.72z M107.99,110.37     c0.7,0.02,16.46,0.22,24.82-10.66V67.5c0-2.91-0.59-5.71-1.75-8.32c-0.15-0.35-0.32-0.69-0.48-1.03     c-0.18-0.36-0.37-0.72-0.56-1.07c-0.21-0.37-0.42-0.74-0.65-1.1c-0.23-0.37-0.48-0.75-0.74-1.11c-0.26-0.38-0.54-0.75-0.83-1.11     c-0.3-0.38-0.61-0.75-0.93-1.1c-0.33-0.37-0.68-0.74-1.03-1.08c-0.37-0.36-0.75-0.72-1.14-1.05c-0.41-0.35-0.83-0.69-1.25-1     c-0.44-0.33-0.91-0.65-1.37-0.95c-0.48-0.31-0.98-0.6-1.5-0.88c-0.53-0.28-1.08-0.55-1.63-0.8c-0.57-0.26-1.17-0.49-1.77-0.71     c-0.62-0.22-1.26-0.43-1.91-0.61c-0.67-0.19-1.36-0.35-2.06-0.49c-0.72-0.14-1.47-0.27-2.22-0.36c-0.48-0.06-0.96-0.11-1.44-0.16     c-0.43-0.04-1.66-0.09-2.7-0.03c-0.42,0.03-0.86,0.07-1.34,0.12c-0.77,0.09-1.53,0.2-2.27,0.34c-0.71,0.13-1.42,0.29-2.11,0.47     c-0.66,0.17-1.32,0.37-1.95,0.59c-0.61,0.21-1.22,0.44-1.81,0.7c-0.57,0.24-1.13,0.51-1.66,0.79c-0.52,0.27-1.04,0.56-1.53,0.87     c-0.48,0.3-0.95,0.61-1.4,0.94c-0.44,0.32-0.87,0.65-1.28,1c-0.4,0.33-0.79,0.69-1.16,1.05c-0.36,0.35-0.71,0.71-1.05,1.08     c-0.32,0.36-0.64,0.73-0.95,1.11c-0.29,0.36-0.58,0.74-0.85,1.12c-0.26,0.36-0.51,0.74-0.75,1.12c-0.23,0.36-0.45,0.73-0.66,1.11     c-0.2,0.36-0.4,0.72-0.58,1.08c-0.17,0.35-0.34,0.69-0.5,1.05l-0.04,0.09c-1.16,2.61-1.75,5.41-1.75,8.32v32.2     C91.55,110.59,107.31,110.38,107.99,110.37z"></path>
		</g>
		<g>
			<path class="st4" d="M86.13,62.39c-0.03,0-0.06,0-0.08-0.01c-0.13-0.05-0.2-0.19-0.15-0.32c2.01-5.71,6.37-10.41,11.95-12.9     c3.68-1.64,7.81-2.36,11.94-2.07c7.1,0.5,13.64,4.07,17.48,9.55c0.08,0.11,0.05,0.27-0.06,0.35c-0.11,0.08-0.27,0.05-0.35-0.06     c-3.76-5.36-10.15-8.85-17.1-9.33c-4.05-0.28-8.09,0.42-11.7,2.03c-5.46,2.44-9.72,7.03-11.68,12.61     C86.34,62.33,86.24,62.39,86.13,62.39z"></path>
		</g>
		<g>
			<path class="st4" d="M130.99,80.43c-0.14,0-0.26-0.12-0.26-0.26V69.76c0-1.33-0.13-2.66-0.37-3.95c-0.03-0.14,0.07-0.28,0.21-0.3     c0.14-0.03,0.28,0.07,0.3,0.21c0.25,1.32,0.38,2.69,0.38,4.05v10.41C131.25,80.31,131.13,80.43,130.99,80.43z"></path>
		</g>
		<g>
			<rect x="130.73" y="80.17" class="st4" width="0.52" height="8.66"></rect>
		</g>
		<g>
			<path class="st4" d="M122.83,104.58c-0.09,0-0.18-0.05-0.23-0.14c-0.06-0.12-0.01-0.28,0.11-0.34c3.27-1.64,5.95-3.82,7.98-6.49     V86.58c0-0.14,0.11-0.25,0.25-0.25s0.25,0.11,0.25,0.25v11.21l-0.05,0.07c-2.08,2.77-4.84,5.03-8.2,6.71     C122.91,104.58,122.87,104.58,122.83,104.58z"></path>
		</g>
		<g>
			<path class="st4" d="M108.32,107.96c-0.14,0-0.25,0-0.32,0c-0.6,0.01-6.08,0.06-12.01-2.13c-0.13-0.05-0.2-0.19-0.15-0.32     c0.05-0.13,0.19-0.2,0.32-0.15c5.84,2.16,11.24,2.11,11.84,2.1c0.62,0.01,3.88,0.03,8.02-0.95c0.14-0.03,0.27,0.05,0.3,0.19     c0.03,0.14-0.05,0.27-0.19,0.3C112.42,107.87,109.4,107.96,108.32,107.96z"></path>
		</g>
		<g>
			<path class="st4" d="M90.74,103.2c-0.05,0-0.09-0.01-0.14-0.04c-2.27-1.47-4.2-3.25-5.75-5.31l-0.05-0.07V74.1     c0-0.14,0.11-0.25,0.25-0.25c0.14,0,0.25,0.11,0.25,0.25v23.51c1.5,1.98,3.38,3.7,5.57,5.12c0.12,0.08,0.15,0.23,0.07,0.35     C90.9,103.16,90.82,103.2,90.74,103.2z"></path>
		</g>
	</g>
	<g>
		<path class="st6" d="M116.13,56.6c-0.77-0.46-1.58-0.84-2.39-1.19c-0.41-0.17-0.83-0.31-1.24-0.47c-0.2-0.09-0.41-0.16-0.62-0.24    c-0.21-0.09-0.42-0.15-0.64-0.19c-0.87-0.21-1.77-0.14-2.64-0.2c-0.88-0.06-1.75,0.03-2.66,0.06c0.84-0.34,1.75-0.55,2.67-0.54    c0.46-0.03,0.91,0.05,1.36,0.13c0.45,0.11,0.88,0.22,1.32,0.33c0.22,0.05,0.44,0.1,0.66,0.15c0.22,0.05,0.45,0.09,0.66,0.16    c0.44,0.13,0.85,0.33,1.25,0.52l0.6,0.32c0.19,0.12,0.39,0.23,0.58,0.36C115.43,56.02,115.8,56.3,116.13,56.6z"></path>
	</g>
	<g>
		<path class="st6" d="M112.44,58.16c-0.64,0.31-1.34,0.49-2.03,0.66c-0.7,0.15-1.41,0.23-2.12,0.27c-0.71,0.02-1.43,0.02-2.14-0.03    c-0.36-0.02-0.71-0.07-1.06-0.1c-0.35-0.05-0.7-0.11-1.05-0.16c-0.02,0-0.03-0.02-0.03-0.04c0-0.02,0.02-0.03,0.04-0.03    c0.7,0.08,1.41,0.14,2.11,0.17c0.71,0.03,1.41,0.01,2.11-0.03c0.7-0.05,1.4-0.12,2.1-0.23C111.07,58.53,111.76,58.37,112.44,58.16    z"></path>
	</g>
	<g>
		<path class="st6" d="M114.11,56.32c-0.92-0.35-1.89-0.59-2.86-0.74c-0.97-0.16-1.96-0.23-2.94-0.21    c-0.98,0.02-1.96,0.14-2.92,0.34c-0.97,0.15-1.89,0.46-2.9,0.57c0.86-0.53,1.84-0.82,2.83-0.98c0.99-0.17,2-0.19,2.99-0.16    c1,0.02,1.99,0.13,2.96,0.33C112.24,55.66,113.2,55.93,114.11,56.32z"></path>
	</g>
	<g>
		<path class="st6" d="M97.12,59.25c-0.42,0.38-0.79,0.78-1.11,1.22c-0.16,0.22-0.3,0.45-0.43,0.69c-0.14,0.24-0.23,0.5-0.34,0.76    c0.03-0.56,0.26-1.12,0.59-1.58C96.17,59.88,96.61,59.48,97.12,59.25z"></path>
	</g>
	<g>
		<path class="st6" d="M98.9,58.99c-0.43,0.43-0.84,0.89-1.21,1.36c-0.37,0.48-0.72,0.97-1.02,1.5c-0.32,0.52-0.55,1.07-0.75,1.64    c-0.21,0.57-0.31,1.17-0.39,1.77c-0.01-0.61,0.05-1.23,0.22-1.83c0.17-0.59,0.42-1.17,0.72-1.7c0.32-0.53,0.67-1.04,1.08-1.5    C97.96,59.78,98.4,59.35,98.9,58.99z"></path>
	</g>
	<g>
		<path class="st6" d="M107.24,57.75l2.48-0.1c0.41-0.02,0.82-0.05,1.23-0.08c0.41-0.04,0.82-0.09,1.22-0.18    c-0.38,0.18-0.79,0.28-1.2,0.35c-0.41,0.08-0.83,0.11-1.24,0.14c-0.42,0.02-0.83,0.02-1.25,0    C108.07,57.85,107.66,57.82,107.24,57.75z"></path>
	</g>
	<g>
		<path class="st6" d="M116.75,58.19c0.52,0.04,1.03,0.18,1.52,0.38c0.49,0.2,0.94,0.48,1.35,0.82c0.41,0.34,0.74,0.77,0.98,1.24    c0.26,0.47,0.37,0.99,0.43,1.5c-0.15-0.5-0.3-0.99-0.58-1.42c-0.26-0.43-0.58-0.83-0.97-1.16c-0.38-0.33-0.81-0.61-1.27-0.83    C117.74,58.5,117.26,58.32,116.75,58.19z"></path>
	</g>
</g>
</svg>