<svg xmlns="http://www.w3.org/2000/svg" version="1.1" id="Layer_1" x="0px" y="0px" viewBox="0 0 216 216" style="enable-background:new 0 0 216 216;" xmlns:xlink="http://www.w3.org/1999/xlink" xml:space="preserve">
<style type="text/css">
	.st0{fill:#396238;}
	.st1{fill:#446D3D;}
	.st2{fill:#602628;}
	.st3{fill:#2E6EA7;}
	.st4{fill:#272425;}
	.st5{fill:#272525;}
	.st6{fill:#FFFFFF;}
</style>
<g>
	<g id="RkYus3_1_">
		<g>
			<path class="st1" d="M43.96,102.15c0.99,0.12,1.97,0.24,2.96,0.36c0.54,0.07,1.04,0.28,1.5,0.57c1.67,1.05,1.9,2.5,0.53,3.91     c-2.36,2.43-4.77,4.81-7.16,7.21c-1.23,1.23-2.47,2.45-3.8,3.78c0.82,0.1,1.24-0.36,1.66-0.71c3.78-3.14,7.93-5.75,12.05-8.4     c1.29-0.83,2.64-1.58,4.07-2.17c1.23-0.51,2.52-0.09,3.45,1.07c0.8,0.98,0.86,1.98-0.08,3.15c-1.27,1.59-2.69,3.06-4.01,4.61     c-1.71,2.01-3.39,4.04-5.08,6.07c-0.12,0.14-0.28,0.27-0.12,0.6c1.23-0.56,2.15-1.57,3.21-2.34c2.39-1.75,4.65-3.67,7.09-5.35     c1.06-0.73,1.81-0.56,2.76,0.58c0.9,1.08,0.91,1.79-0.02,2.71c-2.67,2.63-5.15,5.41-6.78,8.84c-0.57,1.19-0.97,2.44-1.08,3.75     c-0.07,0.78-0.26,1.69,0.96,1.85c0.11,0.01,0.26,0.2,0.27,0.31c0.01,0.3-0.26,0.33-0.48,0.4c-0.98,0.29-2.32-0.28-2.97-1.32     c-0.97-1.52-0.91-3.13-0.41-4.78c0.63-2.05,1.77-3.83,2.96-5.59c0.49-0.73,1.01-1.44,1.52-2.17c-0.31-0.18-0.52-0.11-0.75,0.08     c-3.07,2.56-6.25,5-9.2,7.7c-0.82,0.75-1.58,1.58-2.2,2.51c-0.44,0.66-0.8,1.5-1.87,1.05c-0.93-0.39-1.62-1.73-1.31-2.69     c0.21-0.65,0.52-1.29,0.88-1.87c2.85-4.72,6.25-9.04,9.75-13.29c0.73-0.89,1.45-1.79,2.17-2.69c0.23-0.17,0.48-0.32,0.37-0.73     c-0.26,0.17-0.48,0.31-0.7,0.45c-5.22,2.99-10.05,6.54-14.81,10.18c-3.3,2.53-6.64,5.02-9.1,8.44c-0.74,1.02-1.54,2.04-1.32,3.45     c0.09,0.55-0.28,0.5-0.67,0.4c-1.76-0.46-2.98-2.67-2.37-4.4c0.59-1.7,1.73-3.07,2.83-4.45c5.14-6.44,10.72-12.49,16.52-18.33     c0.16-0.16,0.36-0.27,0.77-0.57c-1.37-0.23-2.41-0.03-3.44,0.08c-6.44,0.71-12.45,2.7-17.91,6.24c-1.26,0.82-2.43,1.77-3.37,2.96     c-1.06,1.34-1.09,2-0.22,3.36c-2,0.52-4.49-2.73-3.88-4.43c0.55-1.53,1.56-2.63,2.81-3.56c2.5-1.86,5.33-3.05,8.26-4.02     c4.72-1.56,9.58-2.46,14.55-2.66c0,0,0,0.02,0,0.02c0.34-0.14,0.77,0.18,1.06-0.22C43.87,102.13,43.92,102.14,43.96,102.15z"></path>
			<path class="st1" d="M98.18,124.65c0.91-0.73,1.77-1.36,2.58-2.06c2.67-2.33,5.37-4.61,8.13-6.82c0.63-0.51,1.22-0.6,1.89-0.19     c0.8,0.48,1.56,1.02,1.7,2.05c0.07,0.5-0.32,0.74-0.63,1.03c-2.98,2.83-5.4,6.01-6.21,10.16c-0.37,1.9-0.2,2.86,0.68,3.93     c-0.74,0.48-1.34,0.12-1.88-0.33c-1.6-1.32-2.17-3.08-1.83-5.06c0.37-2.15,1.06-4.19,2.5-5.9c0.31-0.37,0.55-0.8,1.02-1.49     c-1.51,0.77-2.46,1.76-3.44,2.64c-3.73,3.33-7.37,6.76-10.53,10.67c-0.61,0.75-1.01,0.47-1.41-0.15     c-0.78-1.22-0.53-2.45,0.07-3.62c0.95-1.85,2.16-3.54,3.36-5.24c3.68-5.22,7.98-9.97,11.81-15.08c1.25-1.66,2.5-3.32,3.71-5.01     c0.48-0.67,1.06-1.32,0.74-2.3c-0.14-0.44,0.24-0.45,0.58-0.38c2.31,0.43,3.55,3.24,2.3,5.19c-0.86,1.34-2.05,2.39-3.16,3.51     c-4.15,4.17-8.1,8.5-11.54,13.28C98.42,123.76,98.03,124,98.18,124.65z"></path>
			<path class="st1" d="M163.54,123.4c1.64-1.48,3.23-3.02,4.94-4.42c1.27-1.04,2.55-2.09,4.02-2.85c1.28-0.66,2.65-0.23,3.35,1.02     c0.38,0.69,0.23,1.3-0.25,1.91c-1.23,1.57-2.42,3.17-3.63,4.75c-0.09,0.12-0.21,0.23,0.02,0.49c0.82-0.67,1.68-1.32,2.49-2.02     c0.9-0.78,1.81-1.56,2.64-2.41c0.76-0.78,1.47-0.83,2.3-0.15c1.01,0.83,1.25,1.57,0.63,2.59c-0.71,1.19-1.54,2.3-2.23,3.5     c-0.72,1.23-1.3,2.53-1.35,4c-0.03,1.01,0.12,1.93,1.37,2.22c-0.62,0.82-1.34,0.66-2.03,0.4c-1.63-0.61-2.52-2.51-2.1-4.52     c0.16-0.79,0.39-1.56,0.66-2.32c0.25-0.7,0.6-1.36,0.93-2.1c-0.47-0.04-0.77,0.21-1.05,0.48c-2.14,2.1-4.44,4.04-6.23,6.48     c-0.46,0.63-0.99,1.18-1.82,0.71c-0.83-0.47-1.32-1.2-1-2.21c0.59-1.81,1.71-3.34,2.68-4.95c0.9-1.5,1.83-2.97,2.76-4.48     c-0.85-0.27-1.22,0.49-1.64,0.82c-3.11,2.45-6.15,5-8.75,8.02c-1.03,1.2-1.87,2.53-2.54,3.97c-0.41,0.88-0.86,0.95-1.55,0.27     c-1.1-1.09-1.15-2.72-0.08-4.34c2.19-3.3,4.44-6.56,6.85-9.71c0.36-0.47,0.68-0.99,1.06-1.54c-0.83-0.33-1.15,0.55-1.76,0.57     c-0.24,0.01-0.52,0.31-0.72-0.01c-0.19-0.3,0.1-0.5,0.29-0.67c1.18-1,2.47-1.86,3.93-2.37c1.1-0.38,1.92,0.31,2.59,1.08     c0.61,0.71,0.32,1.35-0.16,2.07c-1.16,1.74-2.59,3.23-3.98,4.76c-0.26,0.29-0.74,0.47-0.66,0.99c-0.21-0.06-0.3,0-0.24,0.22     c-0.31-0.04-0.38,0.21-0.5,0.41c0,0.17-0.08,0.25-0.26,0.24c-0.02,0.12-0.07,0.14-0.17,0.06c0.05-0.02,0.11-0.04,0.16-0.07     c0-0.17,0.11-0.23,0.26-0.24c0.16-0.14,0.32-0.28,0.48-0.43C163.37,123.54,163.45,123.47,163.54,123.4z"></path>
			<path class="st2" d="M128.37,98.1c-1.02,1.56-2.27,2.57-4.26,2.46c-1.76-0.1-3.53-0.04-5.3-0.04c-0.1,0-0.19,0.09-0.29,0.14     c0.06-0.04,0.13-0.07,0.17-0.12c0.05-0.06,0.11-0.15,0.09-0.2c-0.18-0.53-0.59-0.66-0.98-0.34c-1.09,0.92-1,0.28-0.95-0.62     c0.07-1.23-0.2-2.5,0.06-3.68c0.28-1.29,0.22-2.49,0.03-3.74c-0.04-0.29,0.23-0.78-0.38-0.75c-0.42,0.02-0.81,0.08-0.86,0.69     c-0.07,0.96-0.22,1.91-0.64,2.8c-1.24,2.59-3.18,4.23-5.9,5.38c-2.37,1-4.67,0.56-7,0.77c-0.71,0.07-1.2-0.22-1.1-1.14     c0.11-0.99,0.05-2,0.05-3c0-0.71,0.16-1.37,0.55-1.97c0.22-0.34,0.6-0.55-0.14-0.88c-0.51-0.22,0.04-0.96-0.08-1.48     c-0.57-2.41-0.4-4.87-0.36-7.32c0.02-1.17-0.36-1.93-1.49-2.25c-0.37-0.1-0.75-0.18-1.37-0.32c3.27-0.1,6.3-0.1,9.33-0.24     c2.42-0.11,4.75,0.4,6.48,2.39c1.2,1.39,1.53,3.07,1.66,4.81c0.03,0.46,0.09,0.68,0.52,0.53c0.31-0.11,0.9,0.4,0.88-0.57     c-0.03-1.83-0.02-3.66-0.29-5.48c-0.14-0.96-1.09-0.49-1.61-0.99c1.8-0.17,3.53,0.07,5.26-0.11c1.71-0.18,3.45-0.13,5.17-0.15     c0.42-0.01,0.85,0.05,1.25,0.17c0.44,0.14,0.66,0.67,0.31,0.9c-1.01,0.65-1.23,1.91-2.15,2.65c0.04-1.83-0.17-2.14-1.98-2.38     c-1.02-0.14-2.07-0.07-3.11-0.1c-0.41-0.01-0.53,0.22-0.54,0.58c-0.03,1.62-0.04,3.23-0.09,4.85c-0.02,0.6,0.4,0.57,0.76,0.61     c2,0.26,3.99,0.08,5.98-0.19c0.45-0.06,0.89-0.16,1.63-0.3c-0.88,0.87-1.58,1.44-2.54,1.65c-1.45,0.32-2.91,0.29-4.36,0.15     c-0.31-0.03-0.75,0.05-0.81-0.49c-0.03-0.27-0.29-0.16-0.46-0.13c-0.25,0.06-0.2,0.25-0.22,0.45c-0.14,1.36-0.38,2.8-0.3,4.06     c0.07,1.22,0.02,2.55,0.34,3.78c0.13,0.48,0.63,0.33,0.99,0.34c2.67,0.05,5.3-0.14,7.78-1.27     C128.16,98.01,128.25,98.07,128.37,98.1z M103.18,96.63c0.4-0.03,0.61,0.07,0.62,0.56c0.02,0.7-0.36,1.59,0.26,2.05     c0.56,0.42,1.42,0.16,2.15,0.18c0.42,0.01,0.84-0.07,1.26-0.05c2.71,0.09,4.05-1.67,5.1-3.78c0.49-0.99,0.69-2.09,0.87-3.11     c-0.57-0.14-0.93,0.4-1.74,0.48c1.07-1.19,1.43-2.5,2.56-3.89c-1,0.73-1.2,0.35-1.33-0.27c-0.09-0.43-0.21-0.86-0.38-1.29     c-1.29-3.19-4.74-4.06-7.95-3.72c-0.57,0.06-0.87,0.32-0.92,1.03c-0.21,3.54,0.11,7.06,0.1,10.59c0,0.55-0.1,0.96-0.59,1.23     c-0.31,0.04-0.63,0.08-0.84,0.42C102.75,97.07,103.02,96.96,103.18,96.63z M102.09,93.93c-0.01,0.03-0.05,0.06-0.04,0.08     c0.04,0.11,0.1,0.12,0.15,0.01c0.01-0.02-0.01-0.06-0.03-0.08C102.15,93.92,102.11,93.93,102.09,93.93z"></path>
			<path class="st2" d="M150.92,86.23c0.28-1.71-0.67-2.12-1.85-2.21c-1.03-0.08-2.07-0.06-3.11-0.11c-0.54-0.02-0.65,0.3-0.66,0.72     c-0.02,1.5-0.02,3-0.07,4.5c-0.02,0.61,0.23,0.77,0.8,0.82c2.51,0.22,4.98,0.04,7.73-0.57c-0.96,0.86-1.71,1.53-2.71,1.73     c-1.48,0.3-2.98,0.37-4.47,0.1c-0.24-0.04-0.8,0.22-0.77-0.49c0.01-0.18-0.55-0.19-0.58,0.22c-0.12,1.44-0.46,2.97-0.34,4.28     c0.11,1.14,0.09,2.36,0.31,3.53c0.12,0.64,0.61,0.47,1,0.48c2.86,0.05,5.68-0.09,8.41-1.58c-1.26,1.98-2.74,3.1-5.06,2.86     c-1.66-0.17-3.35,0.17-5.31-0.15c0.64,0.23,0.9,0.01,1.31-0.04c-1.03-0.58-1.91-0.48-2.85,0.24c0.1-1.81-0.06-3.4,0.13-4.94     c0.15-1.24,0.11-2.41,0.07-3.63c-0.03-0.98-0.47-0.9-1.05-0.77c-1.16,0.28-2.24,0.8-3.29,1.35c-0.16,0.09-0.35,0.13-0.72,0.27     c0.54-0.86,0.21-1.02-0.51-1.05c-1.23-0.06-2.45-0.23-3.67-0.39c-0.6-0.08-0.91-0.01-0.9,0.73c0.02,2.27,0.17,4.54,0.02,6.81     c-0.05,0.8,0.53,1.2,1.45,1.69c-2.04-0.11-3.75-0.58-5.46,0.14c0.84-0.68,0.99-1.56,0.98-2.54c-0.03-2.03,0.13-4.05,0.53-6.04     c0.16-0.8-0.12-1.16-1.01-0.84c-0.51,0.18-1.01,0.55-1.71,0.33c0.51-0.72,1.24-0.99,1.95-1.19c0.61-0.18,0.93-0.67,0.82-1.07     c-0.45-1.62-0.26-3.28-0.44-4.92c-0.09-0.79-0.35-1.34-1.1-1.69c4.16,0.06,8.27-0.39,12.39-0.01c3.11,0.28,6.21,0.01,9.31-0.16     c0.74-0.04,1.47-0.01,2.18,0.15c0.48,0.11,0.86,0.6,0.43,0.9C152.22,84.31,151.98,85.41,150.92,86.23z M143.06,89.91     c-0.2-1.91,0.04-3.8-0.32-5.68c-0.13-0.66-0.35-0.88-0.94-1.05c-0.77-0.22-0.81,0.37-1.04,0.76c-0.54,0.94-1.06,1.9-1.73,3.12     c0.1-2.05-0.47-2.85-2.12-3.01c-1.14-0.11-2.3,0.02-3.45,0.02c-0.54,0-0.61,0.32-0.61,0.75c0,1.42,0.06,2.85-0.07,4.26     c-0.08,0.83,0.18,0.95,0.9,1C136.79,90.29,139.9,90.14,143.06,89.91z"></path>
			<path class="st2" d="M186.48,90.71c-0.56-0.01-0.27,0.41-0.33,0.66c-0.29,1.24,0.24,2.6-0.6,3.75c-0.05,0.07-0.06,0.27-0.02,0.29     c1.06,0.68,0.51,1.74,0.54,2.61c0.03,0.96,0.2,1.32,1.28,1.31c2.6-0.03,5.14-0.21,7.55-1.28c0.05-0.02,0.14,0.04,0.24,0.06     c-0.97,1.61-2.23,2.6-4.25,2.45c-1.68-0.12-3.38-0.05-5.07-0.07c-0.14,0-0.36,0.24-0.36-0.3c0-0.57-0.65-0.4-1.03-0.02     c-0.21,0.22-0.51,0.28-0.74,0.16c-0.23-0.13-0.03-0.42-0.03-0.63c0.01-1.34-0.2-2.73,0.08-4.02c0.29-1.32,0.08-2.56,0.04-3.84     c-0.02-0.64-0.23-0.68-0.74-0.6c-1.19,0.2-2.26,0.68-3.33,1.3c1.31,1.82,1.48,3.82,0.13,5.49c-1.81,2.23-4.33,3.24-7.3,3.03     c-0.96-0.07-1.53-0.97-2.54-0.9c-0.26,0.02-0.35-0.72-0.28-1.14c0.14-0.78,0.33-1.55,0.52-2.37c1.48,1.58,2.98,2.97,5.27,2.96     c1.4-0.01,2.26-0.61,2.81-2.05c0.45-1.17,0.21-2.35-0.74-3.16c-0.5-0.43-0.89-0.96-1.67-1.11c-0.51-0.1-1.33-0.29-1.42-1.14     c-0.01-0.06-0.15-0.13-0.25-0.15c-2.08-0.48-3.67-2.51-3.73-4.77c-0.05-1.94,1.16-3.42,3.4-4.1c1.81-0.55,3.6-1.07,5.54-0.67     c0.69,0.14,0.81,0.45,0.7,1.02c-0.16,0.82-0.23,1.66-0.57,2.43c-1.17-1.53-3.77-2.32-5.6-1.71c-1.54,0.52-1.94,2.51-0.78,4.07     c0.29,0.39,0.67,0.77,1.08,1.02c1.41,0.85,2.85,1.63,4.28,2.45c0.31,0.18,0.5,0.3,0.85-0.06c0.92-0.96,2.12-1.54,3.42-1.58     c0.97-0.03,1.25-0.62,1.15-1.21c-0.2-1.28-0.04-2.55-0.18-3.82c-0.11-1.06-0.28-2.11-1.83-1.99c1.81-0.26,3.55-0.05,5.28-0.22     c1.75-0.17,3.52-0.12,5.29-0.15c0.38-0.01,0.78,0.04,1.13,0.16c0.42,0.14,0.7,0.63,0.33,0.88c-1.02,0.69-1.28,1.96-2.21,2.73     c0.15-1.81-0.07-2.16-1.86-2.42c-1.02-0.15-2.07-0.07-3.1-0.12c-0.56-0.02-0.62,0.34-0.63,0.75c-0.02,1.54-0.02,3.08-0.07,4.62     c-0.02,0.56,0.3,0.61,0.71,0.66c2,0.27,3.99,0.1,5.97-0.17c0.34-0.05,0.67-0.11,1.04-0.17c-0.58,1.71-5.09,2.46-7.22,1.26     c0.09-0.04,0.24-0.06,0.15-0.19C186.76,90.67,186.59,90.71,186.48,90.71z M171.32,100.01c-0.03-0.06-0.07-0.15-0.11-0.24     c-0.12,0.08-0.26,0.14-0.36,0.24c-0.02,0.02,0.07,0.22,0.14,0.24C171.15,100.31,171.28,100.24,171.32,100.01z"></path>
			<path class="st1" d="M72.34,123.99c-0.61,0.23-0.98,0.77-1.42,1.22c-1.94,1.97-3.87,3.96-5.82,5.94     c-0.27,0.27-0.58,0.51-0.88,0.75c-0.85,0.69-1.78,1.14-2.86,0.57c-1.23-0.65-2.07-1.62-2.07-3.09c0-1.86,0.72-3.53,1.57-5.14     c1.67-3.15,3.86-5.92,6.34-8.47c0.19-0.19,0.4-0.37,0.58-0.57c1.22-1.34,1.37-1.36,2.83-0.2c0.27,0.21,0.49,0.48,0.75,0.72     c0.59,0.54,0.51,0.96-0.1,1.49c-3.08,2.7-5.89,5.64-7.94,9.23c-0.7,1.22-1.29,2.5-1.52,4.11c2.34-1.26,4.1-2.93,5.92-4.5     c3-2.59,5.77-5.44,8.92-7.85c1.23-0.94,1.81-0.81,2.81,0.36c0.64,0.74,0.62,1.35-0.08,2.1c-2.26,2.44-4.2,5.11-5.64,8.12     c-0.54,1.12-1.01,2.25-0.6,3.54c0.24,0.77-0.28,0.63-0.69,0.5c-1.24-0.39-1.98-1.97-1.75-3.66c0.23-1.66,1.01-3.12,1.66-4.62     C72.43,124.37,72.55,124.23,72.34,123.99z"></path>
			<path class="st2" d="M77.7,86.8c0.13-1.26-0.31-1.91-1.12-2.38c-0.89-0.51-1.85-0.76-2.86-0.77c-1.06-0.01-2.02,0.34-2.46,1.38     c-0.5,1.15-0.53,2.32,0.39,3.34c0.89,0.98,2.05,1.57,3.18,2.2c0.77,0.43,1.57,0.83,2.29,1.33c2.31,1.62,2.31,4.93,0.03,6.58     c-0.78,0.56-1.6,1.06-2.41,1.58c-1.82,1.19-3.72,0.96-5.63,0.3c-0.72-0.25-1.1-0.77-0.81-1.6c0.26-0.76,0.5-1.52,0.77-2.35     c0.9,1.71,2.19,2.76,4.09,3c2.39,0.31,3.82-1.1,3.5-3.5c-0.1-0.76-0.13-1.52-0.21-2.42c-0.63,0.71-1.14,0.4-1.77,0.03     c-1.44-0.84-2.92-1.62-4.25-2.65c-0.91-0.71-1.44-2.2-1.11-3.35c0.04-0.14,0.12-0.29,0.09-0.42c-0.31-1.72,0.25-2.73,1.82-3.64     c1.62-0.95,3.39-1.35,5.17-1.15c2.66,0.29,5.32,0.14,7.97,0.21c2.67,0.07,5.34,0.02,8.04,0.1c-1.87,0.23-3.61,1.13-5.54,1.09     c-0.8-0.02-1.07,0.25-1.06,1.05c0.01,4.8,0,9.6-0.06,14.41c-0.01,1.13,1.02,0.64,1.6,1.22c-1.72,0-3.24,0-4.75,0     c0.77-0.77,0.66-1.93,0.58-2.93c-0.12-1.51,0.03-2.95,0.38-4.39c0.11-0.44-0.37-0.58-0.32-1.02c0.13-1.08,0.19-2.17,0.17-3.26     c-0.03-1.43-0.16-2.86-0.24-4.28c-0.02-0.37-0.25-0.43-0.56-0.39c-1.07,0.13-2.14,0.24-3.21,0.38c-0.88,0.11-1.55,0.44-1.46,1.52     C78,86.19,77.87,86.36,77.7,86.8z"></path>
			<path class="st1" d="M140.6,128.17c0.11-1.72,0.83-3.61,2-5.32c2.64-3.87,6-6.8,10.68-7.9c1.66-0.39,4.27,1.3,4.7,2.95     c0.04,0.17,0.04,0.41-0.05,0.54c-0.18,0.26-0.4,0.08-0.6-0.05c-1.36-0.86-2.81-0.64-4.11-0.05c-4.3,1.95-7.73,4.86-9.65,9.3     c-0.31,0.71-0.51,1.46-0.47,2.24c0.05,1.1,0.63,1.61,1.73,1.51c1.07-0.1,1.99-0.61,2.83-1.22c2.66-1.92,4.73-4.38,6.42-7.17     c0.44-0.73,0.68-1.55,0.77-2.4c0.04-0.39,0.07-0.78-0.28-1.06c-0.18-0.15-0.58-0.19-0.37-0.57c0.14-0.27,0.44-0.27,0.71-0.31     c1.55-0.25,2.8,0.79,2.84,2.4c0.03,1.06-0.25,2.07-0.74,2.99c-2.03,3.82-5.02,6.7-8.91,8.57c-1.98,0.95-4.02,1.09-5.85-0.45     C141.14,131.25,140.57,130.02,140.6,128.17z"></path>
			<path class="st1" d="M124.19,128.16c0.1-2.11,1.1-4.25,2.57-6.18c2.58-3.38,5.72-6.02,9.98-7.01c1.75-0.41,4.34,1.21,4.81,2.93     c0.05,0.17,0.05,0.42-0.03,0.55c-0.17,0.26-0.41,0.08-0.6-0.04c-1.44-0.92-2.95-0.63-4.32,0c-3.91,1.8-7.05,4.49-9.08,8.35     c-0.48,0.92-0.84,1.91-0.84,2.97c0,1.28,0.65,1.84,1.91,1.64c1.34-0.21,2.42-0.96,3.44-1.79c2.2-1.79,3.99-3.94,5.48-6.34     c0.5-0.8,0.78-1.67,0.91-2.59c0.05-0.39,0.07-0.77-0.23-1.08c-0.17-0.18-0.6-0.17-0.47-0.53c0.12-0.33,0.48-0.33,0.79-0.38     c1.55-0.24,2.77,0.8,2.81,2.44c0.03,1.23-0.36,2.36-0.95,3.41c-1.98,3.46-4.77,6.1-8.28,7.97c-0.93,0.49-1.92,0.78-2.98,0.83     C126.31,133.43,124.15,131.33,124.19,128.16z"></path>
			<path class="st2" d="M42.77,101.03c0,0,0-0.02,0-0.02c0.09-0.79,0.83-0.57,1.22-0.62c1.14-0.17,1.21-1.01,1.15-1.76     c-0.09-1.11,0.09-2.18,0.12-3.26c0.03-1.33,0.22-2.67-0.01-4.01c-0.09-0.51-0.32-0.56-0.7-0.44c-2.17,0.69-4.42,0.44-6.64,0.49     c-0.87,0.02-1.22,0.3-1.19,1.21c0.07,2.15,0.07,4.3,0.06,6.45c0,0.46,0.11,0.69,0.59,0.79c0.49,0.11,0.94,0.35,1.44,0.54     c-0.5,0.14-5.78,0.21-6.47,0.1c0.14-0.36,0.5-0.22,0.73-0.27c0.82-0.18,0.98-0.64,1.06-1.45c0.23-2.13,0.16-4.26,0.17-6.39     c0-0.82-0.16-1.23-1.08-1.07c-0.83,0.14-1.68,0.2-2.51,0.3c-0.24,0.03-0.53,0.28-0.68-0.09c-0.12-0.3,0.25-0.31,0.39-0.45     c0.87-0.9,2.04-1.04,3.19-1.11c0.62-0.04,0.67-0.25,0.7-0.81c0.1-1.88-0.12-3.76,0.17-5.63c0.1-0.63-0.28-0.88-1.02-1.19     c1.81,0.23,3.29-0.01,4.89,0.02c-1.55,0.3-1.41,1.45-1.5,2.54c-0.11,1.38-0.15,2.76-0.16,4.14c-0.01,0.75,0.29,1,1.01,1.03     c2.27,0.08,4.54,0.14,6.81,0.01c0.66-0.04,0.94-0.17,0.87-1.07c-0.15-2.07-0.02-4.16-0.32-6.22c-0.06-0.41,0.29-0.29,0.44-0.3     c1.03-0.08,2.05-0.11,3.11-0.14c-0.58,0.07-0.75,0.43-0.76,0.95c-0.04,5.19-0.08,10.37-0.14,15.56c-0.01,0.62,0.19,1,0.85,1.11     c0.51,0.09,1,0.28,1.49,0.5c-2.04,0.2-4.09-0.08-6.1,0.36c-0.05-0.01-0.09-0.03-0.14-0.04     C43.47,100.89,43.05,100.63,42.77,101.03z"></path>
			<path class="st1" d="M88.52,124.53c1.88-1.38,3.29-2.79,4.58-4.31c0.6-0.71,1.62-1.61,1.08-2.44c-0.49-0.75-1.74-0.24-2.59,0.03     c-3.73,1.19-6.71,3.25-7.85,7.25c-0.39,1.39-0.32,2.82-0.04,4.23c0.19,0.98,0.42,1.96,0.34,2.97c-0.07,0.86-0.5,1.32-1.43,1.27     c-2.74-0.14-6.16-3.46-6.34-6.19c-0.03-0.37-0.12-0.87,0.37-0.96c0.46-0.09,0.47,0.42,0.57,0.73c0.6,1.83,1.73,3.15,3.59,3.78     c0.35,0.12,0.74,0.34,1.08,0.02c0.37-0.34,0.1-0.73-0.01-1.07c-0.79-2.42-1.14-4.85-0.5-7.37c0.37-1.45,1.03-2.74,2.06-3.81     c2.15-2.24,4.68-3.85,7.78-4.45c1.68-0.33,2.37-0.03,3.31,1.39c0.34,0.51,0.7,1.01,1.06,1.5c0.38,0.52,0.54,1.08,0.39,1.73     c-0.54,2.33-4.18,5.53-6.57,5.75C89.24,124.59,89.05,124.56,88.52,124.53z"></path>
			<path class="st1" d="M190.74,124.38c1.94-1.47,3.6-3.06,4.97-4.93c0.36-0.49,0.9-1.07,0.59-1.65c-0.35-0.65-1.12-0.28-1.7-0.21     c-5.19,0.67-9.35,5.27-9.09,10.1c0.06,1.18,0.38,2.35,0.54,3.53c0.27,2.03-0.52,2.73-2.44,2.07c-2.58-0.9-4.4-2.62-5.18-5.3     c-0.08-0.26-0.13-0.53-0.13-0.79c-0.01-0.33-0.06-0.78,0.39-0.84c0.39-0.05,0.44,0.36,0.53,0.64c0.22,0.75,0.56,1.43,1.03,2.05     c0.7,0.92,1.61,1.53,2.71,1.87c0.31,0.1,0.68,0.28,0.97-0.04c0.28-0.31,0.13-0.66,0.02-0.98c-0.58-1.69-0.91-3.41-0.85-5.21     c0.08-2.5,0.93-4.66,2.73-6.41c2.08-2.02,4.47-3.51,7.36-4.08c1.74-0.34,2.44-0.07,3.41,1.41c0.34,0.51,0.64,1.04,1.05,1.51     c0.48,0.53,0.47,1.2,0.31,1.86c-0.52,2.16-4.11,5.31-6.34,5.57C191.35,124.59,191.09,124.62,190.74,124.38z"></path>
			<path class="st1" d="M121.77,120.68c-3.65,3.17-7.55,6.07-10.37,10.09c-0.47,0.66-0.92,1.35-1.11,2.13     c-0.2,0.81-0.62,0.65-1.07,0.32c-0.92-0.68-0.88-1.66-0.68-2.62c0.19-0.91,0.63-1.73,1.15-2.5c2.35-3.49,4.72-6.96,6.97-10.63     c-0.83,0.47-1.65,0.95-2.5,1.39c-0.33,0.18-0.75,0.69-1.06,0.14c-0.24-0.43,0.33-0.61,0.62-0.82c1.41-0.99,2.82-2,4.36-2.8     c1.27-0.66,2.77-0.06,3.3,1.26c0.29,0.71-0.11,1.2-0.5,1.66c-1.4,1.65-2.84,3.27-4.07,5.06c-0.05,0.03-0.1,0.06-0.15,0.09     c0.04,0.02,0.09,0.03,0.13,0.05c0-0.05,0-0.1,0-0.16c1.08-0.45,1.87-1.32,2.63-2.13c1.45-1.54,3.28-2.55,4.98-3.75     c0.86-0.6,1.49,0.2,2.03,0.8c0.5,0.55,0.58,1.15,0.03,1.75c-0.6,0.65-1.23,1.28-1.76,1.98c-0.81,1.06-0.91,1.7-0.64,3.01     c-1.17,0.1-2.07-0.71-2.18-2.02c-0.06-0.69-0.07-1.38,0.14-2.06c0.1-0.15,0.18-0.3,0.06-0.47     C121.97,120.52,121.87,120.6,121.77,120.68z"></path>
			<path class="st2" d="M51.29,97.3c-0.69,0.28-1.07,0.15-1.3-0.51c-0.9-2.63-1.35-5.27-0.44-7.99c0.2-0.61,0.4-1.26,1.07-1.5     c0.64-0.23-0.1-0.59,0.16-1c0.7-1.1,1.71-1.79,2.77-2.33c3.29-1.7,6.8-1.96,10.33-0.96c1.34,0.38,2.43,1.41,2.96,2.73     c0.95,2.39,1.85,4.82,1.16,7.48c-0.15,0.56-0.24,1.16-0.83,1.44c-0.61,0.29,0.08,0.75-0.2,1.16c-0.57,0.82-1.02,1.74-1.87,2.3     c-2.92,1.92-6.04,3.13-9.62,2.51c-1.5-0.26-2.85-0.85-4-1.88C51.05,98.35,50.74,97.97,51.29,97.3z M66.03,88.02     c-1.21,0.2-1.2-0.47-1.5-1.01c-1.24-2.27-3.36-3.17-5.81-3.47c-1.64-0.2-3.25-0.14-4.55,1.07c-0.82,0.76-1.37,1.71-1.88,2.71     c-2.59,5.18-0.63,10.04,4.92,11.6c3.43,0.96,5.71,1.12,7.6-3.62c0.37-0.94,0.99-1.81,0.88-2.94c-0.04-0.44,0.05-0.87-0.02-1.36     C65.55,90.12,64.56,89.14,66.03,88.02z"></path>
			<path class="st2" d="M166.49,97.03c0-1.54-0.04-2.86,0.01-4.18c0.09-2.71,0.05-5.4-0.22-8.1c-0.08-0.84-0.14-1.58-1.38-1.92     c1.53-0.09,2.71-0.19,4.15,0.04c-1.08,0.23-1.34,0.77-1.36,1.63c-0.08,4.72-0.21,9.45-0.08,14.17c0.02,0.8-0.11,1.6-0.19,2.6     c-2.19-1.63-3.53-3.84-4.78-6c-1.61-2.8-3.22-5.58-5.34-8.15c-0.27,0.5-0.14,1.02-0.12,1.51c0.11,3.22,0.3,6.44,0.34,9.67     c0.01,1.11,0.15,1.87,1.41,1.97c0.12,0.01,0.24,0.1,0.68,0.28c-1.58,0-2.82,0-4.31,0c0.79-0.33,0.67-0.87,0.7-1.36     c0.17-2.72,0-5.43-0.09-8.14c-0.06-1.96,0.05-3.92,0.08-5.88c0.02-1.03-0.04-2.02-1.22-2.59c0.99,0.05,1.99,0.08,2.98,0.14     c0.33,0.02,0.37,0.32,0.5,0.56c1.59,2.85,3.1,5.75,4.83,8.51C164.16,93.49,165.2,95.22,166.49,97.03z"></path>
			<path class="st2" d="M58,93.17c-0.4-0.46-0.99-0.81-1.17-1.47c-0.06-0.21,1.62-1.82,1.74-1.72c0.46,0.38,0.97,0.74,1.15,1.35     C59.77,91.51,58.19,93.19,58,93.17z"></path>
		</g>
	</g>
	<g>
		<path class="st2" d="M198.81,84.34c0,1.05-0.85,1.88-1.92,1.88s-1.93-0.83-1.93-1.88c0-1.05,0.86-1.87,1.94-1.87    C197.97,82.47,198.81,83.29,198.81,84.34z M195.44,84.34c0,0.83,0.63,1.5,1.46,1.5c0.81,0.01,1.43-0.66,1.43-1.48    c0-0.83-0.62-1.51-1.45-1.51C196.07,82.84,195.44,83.52,195.44,84.34z M196.6,85.31h-0.43v-1.87c0.17-0.02,0.41-0.06,0.72-0.06    c0.35,0,0.51,0.06,0.64,0.15c0.11,0.08,0.19,0.22,0.19,0.4c0,0.23-0.17,0.38-0.39,0.45v0.02c0.18,0.06,0.27,0.21,0.33,0.46    c0.06,0.29,0.1,0.39,0.14,0.46h-0.46c-0.06-0.07-0.09-0.23-0.15-0.46c-0.03-0.19-0.15-0.29-0.39-0.29h-0.21V85.31z M196.61,84.26    h0.21c0.24,0,0.43-0.08,0.43-0.27c0-0.17-0.13-0.29-0.4-0.29c-0.11,0-0.19,0.01-0.24,0.02V84.26z"></path>
	</g>
	<g>
		<path class="st1" d="M200.71,115.47v0.42h-0.81V118h-0.5v-2.11h-0.8v-0.42H200.71z M203.44,118l-0.09-1.49    c-0.01-0.2-0.01-0.44-0.02-0.71h-0.03c-0.07,0.22-0.15,0.52-0.21,0.75l-0.46,1.4h-0.52l-0.46-1.44c-0.05-0.19-0.12-0.49-0.18-0.71    h-0.03c0,0.23-0.01,0.47-0.02,0.71l-0.09,1.49h-0.48l0.19-2.53h0.75l0.44,1.24c0.07,0.2,0.1,0.38,0.17,0.64h0.01    c0.07-0.22,0.12-0.45,0.18-0.62l0.44-1.25h0.72l0.19,2.53H203.44z"></path>
	</g>
</g>
</svg>