<svg xmlns="http://www.w3.org/2000/svg" width="28" height="10" viewBox="0 0 28 12" style="fill: #c4764f;">
	<title>truck-icon</title>
    <g>
        <path d="M6 6.58H.166c-.084 0-.167.073-.167.146v.87c0 .073.083.146.167.146h5.832c.084 0 .167-.073.167-.145v-.871c0-.073-.083-.145-.167-.145zM6.002 4.258H1.926c-.082 0-.164.073-.164.145v.871c0 .073.082.145.164.145h4.076c.082 0 .164-.072.164-.145v-.87c0-.098-.082-.146-.164-.146zM6.423 1.935H3.707c-.092 0-.184.073-.184.146v.87c0 .073.092.146.184.146h2.716c.092 0 .183-.073.183-.145V2.08c0-.073-.091-.146-.183-.146zM27.048 5.836l-1.265-3.345c-.115-.302-.46-.529-.834-.529h-3.91V.352c0-.201-.173-.352-.374-.352H8.302c-.202 0-.374.15-.374.352V9.51c0 .177.172.327.374.327h1.897C10.2 11.044 11.32 12 12.672 12c1.351 0 2.473-.981 2.473-2.164h4.916c0 1.208 1.121 2.164 2.473 2.164 1.351 0 2.472-.981 2.472-2.164h1.87c.23 0 .43-.176.43-.377V7.296c0-.504-.086-.982-.258-1.46zm-14.376 5.032c-.633 0-1.179-.453-1.179-1.032 0-.553.518-1.031 1.179-1.031.632 0 1.179.453 1.179 1.031 0 .58-.518 1.032-1.18 1.032zm9.89 0c-.632 0-1.178-.453-1.178-1.032 0-.553.517-1.031 1.179-1.031.66 0 1.15.478 1.15 1.031 0 .58-.518 1.032-1.15 1.032zm2.703-5.46h-3.853c-.2 0-.345-.125-.345-.301V3.42c0-.176.144-.302.345-.302h2.962c.144 0 .287.076.345.202l.719 1.887c.029.1-.058.2-.173.2z"></path>
    </g>
</svg>